<svg width="337" height="41" viewBox="0 0 337 41" fill="none" xmlns="http://www.w3.org/2000/svg">
<rect width="337" height="41" rx="6" fill="#3D3D3D"/>
<path d="M103.576 25.084C103.024 25.084 102.528 24.988 102.088 24.796C101.656 24.596 101.316 24.324 101.068 23.98C100.82 23.628 100.692 23.224 100.684 22.768H101.848C101.888 23.16 102.048 23.492 102.328 23.764C102.616 24.028 103.032 24.16 103.576 24.16C104.096 24.16 104.504 24.032 104.8 23.776C105.104 23.512 105.256 23.176 105.256 22.768C105.256 22.448 105.168 22.188 104.992 21.988C104.816 21.788 104.596 21.636 104.332 21.532C104.068 21.428 103.712 21.316 103.264 21.196C102.712 21.052 102.268 20.908 101.932 20.764C101.604 20.62 101.32 20.396 101.08 20.092C100.848 19.78 100.732 19.364 100.732 18.844C100.732 18.388 100.848 17.984 101.08 17.632C101.312 17.28 101.636 17.008 102.052 16.816C102.476 16.624 102.96 16.528 103.504 16.528C104.288 16.528 104.928 16.724 105.424 17.116C105.928 17.508 106.212 18.028 106.276 18.676H105.076C105.036 18.356 104.868 18.076 104.572 17.836C104.276 17.588 103.884 17.464 103.396 17.464C102.94 17.464 102.568 17.584 102.28 17.824C101.992 18.056 101.848 18.384 101.848 18.808C101.848 19.112 101.932 19.36 102.1 19.552C102.276 19.744 102.488 19.892 102.736 19.996C102.992 20.092 103.348 20.204 103.804 20.332C104.356 20.484 104.8 20.636 105.136 20.788C105.472 20.932 105.76 21.16 106 21.472C106.24 21.776 106.36 22.192 106.36 22.72C106.36 23.128 106.252 23.512 106.036 23.872C105.82 24.232 105.5 24.524 105.076 24.748C104.652 24.972 104.152 25.084 103.576 25.084ZM108.531 17.356C108.323 17.356 108.147 17.284 108.003 17.14C107.859 16.996 107.787 16.82 107.787 16.612C107.787 16.404 107.859 16.228 108.003 16.084C108.147 15.94 108.323 15.868 108.531 15.868C108.731 15.868 108.899 15.94 109.035 16.084C109.179 16.228 109.251 16.404 109.251 16.612C109.251 16.82 109.179 16.996 109.035 17.14C108.899 17.284 108.731 17.356 108.531 17.356ZM109.059 18.424V25H107.967V18.424H109.059ZM114.124 18.304C114.924 18.304 115.572 18.548 116.068 19.036C116.564 19.516 116.812 20.212 116.812 21.124V25H115.732V21.28C115.732 20.624 115.568 20.124 115.24 19.78C114.912 19.428 114.464 19.252 113.896 19.252C113.32 19.252 112.86 19.432 112.516 19.792C112.18 20.152 112.012 20.676 112.012 21.364V25H110.92V18.424H112.012V19.36C112.228 19.024 112.52 18.764 112.888 18.58C113.264 18.396 113.676 18.304 114.124 18.304ZM121.308 18.316C121.876 18.316 122.372 18.44 122.796 18.688C123.228 18.936 123.548 19.248 123.756 19.624V18.424H124.86V25.144C124.86 25.744 124.732 26.276 124.476 26.74C124.22 27.212 123.852 27.58 123.372 27.844C122.9 28.108 122.348 28.24 121.716 28.24C120.852 28.24 120.132 28.036 119.556 27.628C118.98 27.22 118.64 26.664 118.536 25.96H119.616C119.736 26.36 119.984 26.68 120.36 26.92C120.736 27.168 121.188 27.292 121.716 27.292C122.316 27.292 122.804 27.104 123.18 26.728C123.564 26.352 123.756 25.824 123.756 25.144V23.764C123.54 24.148 123.22 24.468 122.796 24.724C122.372 24.98 121.876 25.108 121.308 25.108C120.724 25.108 120.192 24.964 119.712 24.676C119.24 24.388 118.868 23.984 118.596 23.464C118.324 22.944 118.188 22.352 118.188 21.688C118.188 21.016 118.324 20.428 118.596 19.924C118.868 19.412 119.24 19.016 119.712 18.736C120.192 18.456 120.724 18.316 121.308 18.316ZM123.756 21.7C123.756 21.204 123.656 20.772 123.456 20.404C123.256 20.036 122.984 19.756 122.64 19.564C122.304 19.364 121.932 19.264 121.524 19.264C121.116 19.264 120.744 19.36 120.408 19.552C120.072 19.744 119.804 20.024 119.604 20.392C119.404 20.76 119.304 21.192 119.304 21.688C119.304 22.192 119.404 22.632 119.604 23.008C119.804 23.376 120.072 23.66 120.408 23.86C120.744 24.052 121.116 24.148 121.524 24.148C121.932 24.148 122.304 24.052 122.64 23.86C122.984 23.66 123.256 23.376 123.456 23.008C123.656 22.632 123.756 22.196 123.756 21.7ZM127.797 16.12V25H126.705V16.12H127.797ZM135.658 21.46C135.658 21.668 135.646 21.888 135.622 22.12H130.366C130.406 22.768 130.626 23.276 131.026 23.644C131.434 24.004 131.926 24.184 132.502 24.184C132.974 24.184 133.366 24.076 133.678 23.86C133.998 23.636 134.222 23.34 134.35 22.972H135.526C135.35 23.604 134.998 24.12 134.47 24.52C133.942 24.912 133.286 25.108 132.502 25.108C131.878 25.108 131.318 24.968 130.822 24.688C130.334 24.408 129.95 24.012 129.67 23.5C129.39 22.98 129.25 22.38 129.25 21.7C129.25 21.02 129.386 20.424 129.658 19.912C129.93 19.4 130.31 19.008 130.798 18.736C131.294 18.456 131.862 18.316 132.502 18.316C133.126 18.316 133.678 18.452 134.158 18.724C134.638 18.996 135.006 19.372 135.262 19.852C135.526 20.324 135.658 20.86 135.658 21.46ZM134.53 21.232C134.53 20.816 134.438 20.46 134.254 20.164C134.07 19.86 133.818 19.632 133.498 19.48C133.186 19.32 132.838 19.24 132.454 19.24C131.902 19.24 131.43 19.416 131.038 19.768C130.654 20.12 130.434 20.608 130.378 21.232H134.53ZM139.891 20.812C139.891 19.996 140.075 19.264 140.443 18.616C140.811 17.96 141.311 17.448 141.943 17.08C142.583 16.712 143.291 16.528 144.067 16.528C144.979 16.528 145.775 16.748 146.455 17.188C147.135 17.628 147.631 18.252 147.943 19.06H146.635C146.403 18.556 146.067 18.168 145.627 17.896C145.195 17.624 144.675 17.488 144.067 17.488C143.483 17.488 142.959 17.624 142.495 17.896C142.031 18.168 141.667 18.556 141.403 19.06C141.139 19.556 141.007 20.14 141.007 20.812C141.007 21.476 141.139 22.06 141.403 22.564C141.667 23.06 142.031 23.444 142.495 23.716C142.959 23.988 143.483 24.124 144.067 24.124C144.675 24.124 145.195 23.992 145.627 23.728C146.067 23.456 146.403 23.068 146.635 22.564H147.943C147.631 23.364 147.135 23.984 146.455 24.424C145.775 24.856 144.979 25.072 144.067 25.072C143.291 25.072 142.583 24.892 141.943 24.532C141.311 24.164 140.811 23.656 140.443 23.008C140.075 22.36 139.891 21.628 139.891 20.812ZM150.661 19.492C150.853 19.116 151.125 18.824 151.477 18.616C151.837 18.408 152.273 18.304 152.785 18.304V19.432H152.497C151.273 19.432 150.661 20.096 150.661 21.424V25H149.569V18.424H150.661V19.492ZM160.045 21.46C160.045 21.668 160.033 21.888 160.009 22.12H154.753C154.793 22.768 155.013 23.276 155.413 23.644C155.821 24.004 156.313 24.184 156.889 24.184C157.361 24.184 157.753 24.076 158.065 23.86C158.385 23.636 158.609 23.34 158.737 22.972H159.913C159.737 23.604 159.385 24.12 158.857 24.52C158.329 24.912 157.673 25.108 156.889 25.108C156.265 25.108 155.705 24.968 155.209 24.688C154.721 24.408 154.337 24.012 154.057 23.5C153.777 22.98 153.637 22.38 153.637 21.7C153.637 21.02 153.773 20.424 154.045 19.912C154.317 19.4 154.697 19.008 155.185 18.736C155.681 18.456 156.249 18.316 156.889 18.316C157.513 18.316 158.065 18.452 158.545 18.724C159.025 18.996 159.393 19.372 159.649 19.852C159.913 20.324 160.045 20.86 160.045 21.46ZM158.917 21.232C158.917 20.816 158.825 20.46 158.641 20.164C158.457 19.86 158.205 19.632 157.885 19.48C157.573 19.32 157.225 19.24 156.841 19.24C156.289 19.24 155.817 19.416 155.425 19.768C155.041 20.12 154.821 20.608 154.765 21.232H158.917ZM161.079 21.688C161.079 21.016 161.215 20.428 161.487 19.924C161.759 19.412 162.131 19.016 162.603 18.736C163.083 18.456 163.619 18.316 164.211 18.316C164.723 18.316 165.199 18.436 165.639 18.676C166.079 18.908 166.415 19.216 166.647 19.6V16.12H167.751V25H166.647V23.764C166.431 24.156 166.111 24.48 165.687 24.736C165.263 24.984 164.767 25.108 164.199 25.108C163.615 25.108 163.083 24.964 162.603 24.676C162.131 24.388 161.759 23.984 161.487 23.464C161.215 22.944 161.079 22.352 161.079 21.688ZM166.647 21.7C166.647 21.204 166.547 20.772 166.347 20.404C166.147 20.036 165.875 19.756 165.531 19.564C165.195 19.364 164.823 19.264 164.415 19.264C164.007 19.264 163.635 19.36 163.299 19.552C162.963 19.744 162.695 20.024 162.495 20.392C162.295 20.76 162.195 21.192 162.195 21.688C162.195 22.192 162.295 22.632 162.495 23.008C162.695 23.376 162.963 23.66 163.299 23.86C163.635 24.052 164.007 24.148 164.415 24.148C164.823 24.148 165.195 24.052 165.531 23.86C165.875 23.66 166.147 23.376 166.347 23.008C166.547 22.632 166.647 22.196 166.647 21.7ZM170.16 17.356C169.952 17.356 169.776 17.284 169.632 17.14C169.488 16.996 169.416 16.82 169.416 16.612C169.416 16.404 169.488 16.228 169.632 16.084C169.776 15.94 169.952 15.868 170.16 15.868C170.36 15.868 170.528 15.94 170.664 16.084C170.808 16.228 170.88 16.404 170.88 16.612C170.88 16.82 170.808 16.996 170.664 17.14C170.528 17.284 170.36 17.356 170.16 17.356ZM170.688 18.424V25H169.596V18.424H170.688ZM173.881 19.324V23.2C173.881 23.52 173.949 23.748 174.085 23.884C174.221 24.012 174.457 24.076 174.793 24.076H175.597V25H174.613C174.005 25 173.549 24.86 173.245 24.58C172.941 24.3 172.789 23.84 172.789 23.2V19.324H171.937V18.424H172.789V16.768H173.881V18.424H175.597V19.324H173.881ZM182.987 25.108C182.371 25.108 181.811 24.968 181.307 24.688C180.811 24.408 180.419 24.012 180.131 23.5C179.851 22.98 179.711 22.38 179.711 21.7C179.711 21.028 179.855 20.436 180.143 19.924C180.439 19.404 180.839 19.008 181.343 18.736C181.847 18.456 182.411 18.316 183.035 18.316C183.659 18.316 184.223 18.456 184.727 18.736C185.231 19.008 185.627 19.4 185.915 19.912C186.211 20.424 186.359 21.02 186.359 21.7C186.359 22.38 186.207 22.98 185.903 23.5C185.607 24.012 185.203 24.408 184.691 24.688C184.179 24.968 183.611 25.108 182.987 25.108ZM182.987 24.148C183.379 24.148 183.747 24.056 184.091 23.872C184.435 23.688 184.711 23.412 184.919 23.044C185.135 22.676 185.243 22.228 185.243 21.7C185.243 21.172 185.139 20.724 184.931 20.356C184.723 19.988 184.451 19.716 184.115 19.54C183.779 19.356 183.415 19.264 183.023 19.264C182.623 19.264 182.255 19.356 181.919 19.54C181.591 19.716 181.327 19.988 181.127 20.356C180.927 20.724 180.827 21.172 180.827 21.7C180.827 22.236 180.923 22.688 181.115 23.056C181.315 23.424 181.579 23.7 181.907 23.884C182.235 24.06 182.595 24.148 182.987 24.148ZM188.887 19.492C189.079 19.116 189.351 18.824 189.703 18.616C190.063 18.408 190.499 18.304 191.011 18.304V19.432H190.723C189.499 19.432 188.887 20.096 188.887 21.424V25H187.795V18.424H188.887V19.492ZM198.075 16.636C198.987 16.636 199.775 16.808 200.439 17.152C201.111 17.488 201.623 17.972 201.975 18.604C202.335 19.236 202.515 19.98 202.515 20.836C202.515 21.692 202.335 22.436 201.975 23.068C201.623 23.692 201.111 24.172 200.439 24.508C199.775 24.836 198.987 25 198.075 25H195.471V16.636H198.075ZM198.075 24.1C199.155 24.1 199.979 23.816 200.547 23.248C201.115 22.672 201.399 21.868 201.399 20.836C201.399 19.796 201.111 18.984 200.535 18.4C199.967 17.816 199.147 17.524 198.075 17.524H196.563V24.1H198.075ZM209.955 21.46C209.955 21.668 209.943 21.888 209.919 22.12H204.663C204.703 22.768 204.923 23.276 205.323 23.644C205.731 24.004 206.223 24.184 206.799 24.184C207.271 24.184 207.663 24.076 207.975 23.86C208.295 23.636 208.519 23.34 208.647 22.972H209.823C209.647 23.604 209.295 24.12 208.767 24.52C208.239 24.912 207.583 25.108 206.799 25.108C206.175 25.108 205.615 24.968 205.119 24.688C204.631 24.408 204.247 24.012 203.967 23.5C203.687 22.98 203.547 22.38 203.547 21.7C203.547 21.02 203.683 20.424 203.955 19.912C204.227 19.4 204.607 19.008 205.095 18.736C205.591 18.456 206.159 18.316 206.799 18.316C207.423 18.316 207.975 18.452 208.455 18.724C208.935 18.996 209.303 19.372 209.559 19.852C209.823 20.324 209.955 20.86 209.955 21.46ZM208.827 21.232C208.827 20.816 208.735 20.46 208.551 20.164C208.367 19.86 208.115 19.632 207.795 19.48C207.483 19.32 207.135 19.24 206.751 19.24C206.199 19.24 205.727 19.416 205.335 19.768C204.951 20.12 204.731 20.608 204.675 21.232H208.827ZM212.489 19.648C212.713 19.256 213.041 18.936 213.473 18.688C213.905 18.44 214.397 18.316 214.949 18.316C215.541 18.316 216.073 18.456 216.545 18.736C217.017 19.016 217.389 19.412 217.661 19.924C217.933 20.428 218.069 21.016 218.069 21.688C218.069 22.352 217.933 22.944 217.661 23.464C217.389 23.984 217.013 24.388 216.533 24.676C216.061 24.964 215.533 25.108 214.949 25.108C214.381 25.108 213.881 24.984 213.449 24.736C213.025 24.488 212.705 24.172 212.489 23.788V25H211.397V16.12H212.489V19.648ZM216.953 21.688C216.953 21.192 216.853 20.76 216.653 20.392C216.453 20.024 216.181 19.744 215.837 19.552C215.501 19.36 215.129 19.264 214.721 19.264C214.321 19.264 213.949 19.364 213.605 19.564C213.269 19.756 212.997 20.04 212.789 20.416C212.589 20.784 212.489 21.212 212.489 21.7C212.489 22.196 212.589 22.632 212.789 23.008C212.997 23.376 213.269 23.66 213.605 23.86C213.949 24.052 214.321 24.148 214.721 24.148C215.129 24.148 215.501 24.052 215.837 23.86C216.181 23.66 216.453 23.376 216.653 23.008C216.853 22.632 216.953 22.192 216.953 21.688ZM220.07 17.356C219.862 17.356 219.686 17.284 219.542 17.14C219.398 16.996 219.326 16.82 219.326 16.612C219.326 16.404 219.398 16.228 219.542 16.084C219.686 15.94 219.862 15.868 220.07 15.868C220.27 15.868 220.438 15.94 220.574 16.084C220.718 16.228 220.79 16.404 220.79 16.612C220.79 16.82 220.718 16.996 220.574 17.14C220.438 17.284 220.27 17.356 220.07 17.356ZM220.598 18.424V25H219.506V18.424H220.598ZM223.791 19.324V23.2C223.791 23.52 223.859 23.748 223.995 23.884C224.131 24.012 224.367 24.076 224.703 24.076H225.507V25H224.523C223.915 25 223.459 24.86 223.155 24.58C222.851 24.3 222.699 23.84 222.699 23.2V19.324H221.847V18.424H222.699V16.768H223.791V18.424H225.507V19.324H223.791ZM229.621 20.812C229.621 19.996 229.805 19.264 230.173 18.616C230.541 17.96 231.041 17.448 231.673 17.08C232.313 16.712 233.021 16.528 233.797 16.528C234.709 16.528 235.505 16.748 236.185 17.188C236.865 17.628 237.361 18.252 237.673 19.06H236.365C236.133 18.556 235.797 18.168 235.357 17.896C234.925 17.624 234.405 17.488 233.797 17.488C233.213 17.488 232.689 17.624 232.225 17.896C231.761 18.168 231.397 18.556 231.133 19.06C230.869 19.556 230.737 20.14 230.737 20.812C230.737 21.476 230.869 22.06 231.133 22.564C231.397 23.06 231.761 23.444 232.225 23.716C232.689 23.988 233.213 24.124 233.797 24.124C234.405 24.124 234.925 23.992 235.357 23.728C235.797 23.456 236.133 23.068 236.365 22.564H237.673C237.361 23.364 236.865 23.984 236.185 24.424C235.505 24.856 234.709 25.072 233.797 25.072C233.021 25.072 232.313 24.892 231.673 24.532C231.041 24.164 230.541 23.656 230.173 23.008C229.805 22.36 229.621 21.628 229.621 20.812ZM238.891 21.688C238.891 21.016 239.027 20.428 239.299 19.924C239.571 19.412 239.943 19.016 240.415 18.736C240.895 18.456 241.427 18.316 242.011 18.316C242.587 18.316 243.087 18.44 243.511 18.688C243.935 18.936 244.251 19.248 244.459 19.624V18.424H245.563V25H244.459V23.776C244.243 24.16 243.919 24.48 243.487 24.736C243.063 24.984 242.567 25.108 241.999 25.108C241.415 25.108 240.887 24.964 240.415 24.676C239.943 24.388 239.571 23.984 239.299 23.464C239.027 22.944 238.891 22.352 238.891 21.688ZM244.459 21.7C244.459 21.204 244.359 20.772 244.159 20.404C243.959 20.036 243.687 19.756 243.343 19.564C243.007 19.364 242.635 19.264 242.227 19.264C241.819 19.264 241.447 19.36 241.111 19.552C240.775 19.744 240.507 20.024 240.307 20.392C240.107 20.76 240.007 21.192 240.007 21.688C240.007 22.192 240.107 22.632 240.307 23.008C240.507 23.376 240.775 23.66 241.111 23.86C241.447 24.052 241.819 24.148 242.227 24.148C242.635 24.148 243.007 24.052 243.343 23.86C243.687 23.66 243.959 23.376 244.159 23.008C244.359 22.632 244.459 22.196 244.459 21.7ZM248.5 19.492C248.692 19.116 248.964 18.824 249.316 18.616C249.676 18.408 250.112 18.304 250.624 18.304V19.432H250.336C249.112 19.432 248.5 20.096 248.5 21.424V25H247.408V18.424H248.5V19.492ZM251.477 21.688C251.477 21.016 251.613 20.428 251.885 19.924C252.157 19.412 252.529 19.016 253.001 18.736C253.481 18.456 254.017 18.316 254.609 18.316C255.121 18.316 255.597 18.436 256.037 18.676C256.477 18.908 256.813 19.216 257.045 19.6V16.12H258.149V25H257.045V23.764C256.829 24.156 256.509 24.48 256.085 24.736C255.661 24.984 255.165 25.108 254.597 25.108C254.013 25.108 253.481 24.964 253.001 24.676C252.529 24.388 252.157 23.984 251.885 23.464C251.613 22.944 251.477 22.352 251.477 21.688ZM257.045 21.7C257.045 21.204 256.945 20.772 256.745 20.404C256.545 20.036 256.273 19.756 255.929 19.564C255.593 19.364 255.221 19.264 254.813 19.264C254.405 19.264 254.033 19.36 253.697 19.552C253.361 19.744 253.093 20.024 252.893 20.392C252.693 20.76 252.593 21.192 252.593 21.688C252.593 22.192 252.693 22.632 252.893 23.008C253.093 23.376 253.361 23.66 253.697 23.86C254.033 24.052 254.405 24.148 254.813 24.148C255.221 24.148 255.593 24.052 255.929 23.86C256.273 23.66 256.545 23.376 256.745 23.008C256.945 22.632 257.045 22.196 257.045 21.7Z" fill="white"/>
<path d="M77 16.5C77 15.9033 77.2371 15.331 77.659 14.909C78.081 14.4871 78.6533 14.25 79.25 14.25H92.75C93.3467 14.25 93.919 14.4871 94.341 14.909C94.7629 15.331 95 15.9033 95 16.5V17.625H77V16.5ZM77 19.875V25.5C77 26.0967 77.2371 26.669 77.659 27.091C78.081 27.5129 78.6533 27.75 79.25 27.75H92.75C93.3467 27.75 93.919 27.5129 94.341 27.091C94.7629 26.669 95 26.0967 95 25.5V19.875H77ZM80.375 22.125H81.5C81.7984 22.125 82.0845 22.2435 82.2955 22.4545C82.5065 22.6655 82.625 22.9516 82.625 23.25V24.375C82.625 24.6734 82.5065 24.9595 82.2955 25.1705C82.0845 25.3815 81.7984 25.5 81.5 25.5H80.375C80.0766 25.5 79.7905 25.3815 79.5795 25.1705C79.3685 24.9595 79.25 24.6734 79.25 24.375V23.25C79.25 22.9516 79.3685 22.6655 79.5795 22.4545C79.7905 22.2435 80.0766 22.125 80.375 22.125Z" fill="white"/>
</svg>
