<svg width="240" height="41" viewBox="0 0 240 41" fill="none" xmlns="http://www.w3.org/2000/svg">
<rect width="240" height="41" rx="6" fill="#3D3D3D"/>
<path d="M47.576 25.084C47.024 25.084 46.528 24.988 46.088 24.796C45.656 24.596 45.316 24.324 45.068 23.98C44.82 23.628 44.692 23.224 44.684 22.768H45.848C45.888 23.16 46.048 23.492 46.328 23.764C46.616 24.028 47.032 24.16 47.576 24.16C48.096 24.16 48.504 24.032 48.8 23.776C49.104 23.512 49.256 23.176 49.256 22.768C49.256 22.448 49.168 22.188 48.992 21.988C48.816 21.788 48.596 21.636 48.332 21.532C48.068 21.428 47.712 21.316 47.264 21.196C46.712 21.052 46.268 20.908 45.932 20.764C45.604 20.62 45.32 20.396 45.08 20.092C44.848 19.78 44.732 19.364 44.732 18.844C44.732 18.388 44.848 17.984 45.08 17.632C45.312 17.28 45.636 17.008 46.052 16.816C46.476 16.624 46.96 16.528 47.504 16.528C48.288 16.528 48.928 16.724 49.424 17.116C49.928 17.508 50.212 18.028 50.276 18.676H49.076C49.036 18.356 48.868 18.076 48.572 17.836C48.276 17.588 47.884 17.464 47.396 17.464C46.94 17.464 46.568 17.584 46.28 17.824C45.992 18.056 45.848 18.384 45.848 18.808C45.848 19.112 45.932 19.36 46.1 19.552C46.276 19.744 46.488 19.892 46.736 19.996C46.992 20.092 47.348 20.204 47.804 20.332C48.356 20.484 48.8 20.636 49.136 20.788C49.472 20.932 49.76 21.16 50 21.472C50.24 21.776 50.36 22.192 50.36 22.72C50.36 23.128 50.252 23.512 50.036 23.872C49.82 24.232 49.5 24.524 49.076 24.748C48.652 24.972 48.152 25.084 47.576 25.084ZM52.531 17.356C52.323 17.356 52.147 17.284 52.003 17.14C51.859 16.996 51.787 16.82 51.787 16.612C51.787 16.404 51.859 16.228 52.003 16.084C52.147 15.94 52.323 15.868 52.531 15.868C52.731 15.868 52.899 15.94 53.035 16.084C53.179 16.228 53.251 16.404 53.251 16.612C53.251 16.82 53.179 16.996 53.035 17.14C52.899 17.284 52.731 17.356 52.531 17.356ZM53.059 18.424V25H51.967V18.424H53.059ZM58.1241 18.304C58.9241 18.304 59.5721 18.548 60.0681 19.036C60.5641 19.516 60.8121 20.212 60.8121 21.124V25H59.7321V21.28C59.7321 20.624 59.5681 20.124 59.2401 19.78C58.9121 19.428 58.4641 19.252 57.8961 19.252C57.3201 19.252 56.8601 19.432 56.5161 19.792C56.1801 20.152 56.0121 20.676 56.0121 21.364V25H54.9201V18.424H56.0121V19.36C56.2281 19.024 56.5201 18.764 56.8881 18.58C57.2641 18.396 57.6761 18.304 58.1241 18.304ZM65.3079 18.316C65.8759 18.316 66.3719 18.44 66.7959 18.688C67.2279 18.936 67.5479 19.248 67.7559 19.624V18.424H68.8599V25.144C68.8599 25.744 68.7319 26.276 68.4759 26.74C68.2199 27.212 67.8519 27.58 67.3719 27.844C66.8999 28.108 66.3479 28.24 65.7159 28.24C64.8519 28.24 64.1319 28.036 63.5559 27.628C62.9799 27.22 62.6399 26.664 62.5359 25.96H63.6159C63.7359 26.36 63.9839 26.68 64.3599 26.92C64.7359 27.168 65.1879 27.292 65.7159 27.292C66.3159 27.292 66.8039 27.104 67.1799 26.728C67.5639 26.352 67.7559 25.824 67.7559 25.144V23.764C67.5399 24.148 67.2199 24.468 66.7959 24.724C66.3719 24.98 65.8759 25.108 65.3079 25.108C64.7239 25.108 64.1919 24.964 63.7119 24.676C63.2399 24.388 62.8679 23.984 62.5959 23.464C62.3239 22.944 62.1879 22.352 62.1879 21.688C62.1879 21.016 62.3239 20.428 62.5959 19.924C62.8679 19.412 63.2399 19.016 63.7119 18.736C64.1919 18.456 64.7239 18.316 65.3079 18.316ZM67.7559 21.7C67.7559 21.204 67.6559 20.772 67.4559 20.404C67.2559 20.036 66.9839 19.756 66.6399 19.564C66.3039 19.364 65.9319 19.264 65.5239 19.264C65.1159 19.264 64.7439 19.36 64.4079 19.552C64.0719 19.744 63.8039 20.024 63.6039 20.392C63.4039 20.76 63.3039 21.192 63.3039 21.688C63.3039 22.192 63.4039 22.632 63.6039 23.008C63.8039 23.376 64.0719 23.66 64.4079 23.86C64.7439 24.052 65.1159 24.148 65.5239 24.148C65.9319 24.148 66.3039 24.052 66.6399 23.86C66.9839 23.66 67.2559 23.376 67.4559 23.008C67.6559 22.632 67.7559 22.196 67.7559 21.7ZM71.7973 16.12V25H70.7053V16.12H71.7973ZM79.6584 21.46C79.6584 21.668 79.6464 21.888 79.6224 22.12H74.3664C74.4064 22.768 74.6264 23.276 75.0264 23.644C75.4344 24.004 75.9264 24.184 76.5024 24.184C76.9744 24.184 77.3664 24.076 77.6784 23.86C77.9984 23.636 78.2224 23.34 78.3504 22.972H79.5264C79.3504 23.604 78.9984 24.12 78.4704 24.52C77.9424 24.912 77.2864 25.108 76.5024 25.108C75.8784 25.108 75.3184 24.968 74.8224 24.688C74.3344 24.408 73.9504 24.012 73.6704 23.5C73.3904 22.98 73.2504 22.38 73.2504 21.7C73.2504 21.02 73.3864 20.424 73.6584 19.912C73.9304 19.4 74.3104 19.008 74.7984 18.736C75.2944 18.456 75.8624 18.316 76.5024 18.316C77.1264 18.316 77.6784 18.452 78.1584 18.724C78.6384 18.996 79.0064 19.372 79.2624 19.852C79.5264 20.324 79.6584 20.86 79.6584 21.46ZM78.5304 21.232C78.5304 20.816 78.4384 20.46 78.2544 20.164C78.0704 19.86 77.8184 19.632 77.4984 19.48C77.1864 19.32 76.8384 19.24 76.4544 19.24C75.9024 19.24 75.4304 19.416 75.0384 19.768C74.6544 20.12 74.4344 20.608 74.3784 21.232H78.5304ZM83.891 20.812C83.891 19.996 84.075 19.264 84.443 18.616C84.811 17.96 85.311 17.448 85.943 17.08C86.583 16.712 87.291 16.528 88.067 16.528C88.979 16.528 89.775 16.748 90.455 17.188C91.135 17.628 91.631 18.252 91.943 19.06H90.635C90.403 18.556 90.067 18.168 89.627 17.896C89.195 17.624 88.675 17.488 88.067 17.488C87.483 17.488 86.959 17.624 86.495 17.896C86.031 18.168 85.667 18.556 85.403 19.06C85.139 19.556 85.007 20.14 85.007 20.812C85.007 21.476 85.139 22.06 85.403 22.564C85.667 23.06 86.031 23.444 86.495 23.716C86.959 23.988 87.483 24.124 88.067 24.124C88.675 24.124 89.195 23.992 89.627 23.728C90.067 23.456 90.403 23.068 90.635 22.564H91.943C91.631 23.364 91.135 23.984 90.455 24.424C89.775 24.856 88.979 25.072 88.067 25.072C87.291 25.072 86.583 24.892 85.943 24.532C85.311 24.164 84.811 23.656 84.443 23.008C84.075 22.36 83.891 21.628 83.891 20.812ZM94.6605 19.492C94.8525 19.116 95.1245 18.824 95.4765 18.616C95.8365 18.408 96.2725 18.304 96.7845 18.304V19.432H96.4965C95.2725 19.432 94.6605 20.096 94.6605 21.424V25H93.5685V18.424H94.6605V19.492ZM104.045 21.46C104.045 21.668 104.033 21.888 104.009 22.12H98.7531C98.7931 22.768 99.0131 23.276 99.4131 23.644C99.8211 24.004 100.313 24.184 100.889 24.184C101.361 24.184 101.753 24.076 102.065 23.86C102.385 23.636 102.609 23.34 102.737 22.972H103.913C103.737 23.604 103.385 24.12 102.857 24.52C102.329 24.912 101.673 25.108 100.889 25.108C100.265 25.108 99.7051 24.968 99.2091 24.688C98.7211 24.408 98.3371 24.012 98.0571 23.5C97.7771 22.98 97.6371 22.38 97.6371 21.7C97.6371 21.02 97.7731 20.424 98.0451 19.912C98.3171 19.4 98.6971 19.008 99.1851 18.736C99.6811 18.456 100.249 18.316 100.889 18.316C101.513 18.316 102.065 18.452 102.545 18.724C103.025 18.996 103.393 19.372 103.649 19.852C103.913 20.324 104.045 20.86 104.045 21.46ZM102.917 21.232C102.917 20.816 102.825 20.46 102.641 20.164C102.457 19.86 102.205 19.632 101.885 19.48C101.573 19.32 101.225 19.24 100.841 19.24C100.289 19.24 99.8171 19.416 99.4251 19.768C99.0411 20.12 98.8211 20.608 98.7651 21.232H102.917ZM105.079 21.688C105.079 21.016 105.215 20.428 105.487 19.924C105.759 19.412 106.131 19.016 106.603 18.736C107.083 18.456 107.619 18.316 108.211 18.316C108.723 18.316 109.199 18.436 109.639 18.676C110.079 18.908 110.415 19.216 110.647 19.6V16.12H111.751V25H110.647V23.764C110.431 24.156 110.111 24.48 109.687 24.736C109.263 24.984 108.767 25.108 108.199 25.108C107.615 25.108 107.083 24.964 106.603 24.676C106.131 24.388 105.759 23.984 105.487 23.464C105.215 22.944 105.079 22.352 105.079 21.688ZM110.647 21.7C110.647 21.204 110.547 20.772 110.347 20.404C110.147 20.036 109.875 19.756 109.531 19.564C109.195 19.364 108.823 19.264 108.415 19.264C108.007 19.264 107.635 19.36 107.299 19.552C106.963 19.744 106.695 20.024 106.495 20.392C106.295 20.76 106.195 21.192 106.195 21.688C106.195 22.192 106.295 22.632 106.495 23.008C106.695 23.376 106.963 23.66 107.299 23.86C107.635 24.052 108.007 24.148 108.415 24.148C108.823 24.148 109.195 24.052 109.531 23.86C109.875 23.66 110.147 23.376 110.347 23.008C110.547 22.632 110.647 22.196 110.647 21.7ZM114.16 17.356C113.952 17.356 113.776 17.284 113.632 17.14C113.488 16.996 113.416 16.82 113.416 16.612C113.416 16.404 113.488 16.228 113.632 16.084C113.776 15.94 113.952 15.868 114.16 15.868C114.36 15.868 114.528 15.94 114.664 16.084C114.808 16.228 114.88 16.404 114.88 16.612C114.88 16.82 114.808 16.996 114.664 17.14C114.528 17.284 114.36 17.356 114.16 17.356ZM114.688 18.424V25H113.596V18.424H114.688ZM117.881 19.324V23.2C117.881 23.52 117.949 23.748 118.085 23.884C118.221 24.012 118.457 24.076 118.793 24.076H119.597V25H118.613C118.005 25 117.549 24.86 117.245 24.58C116.941 24.3 116.789 23.84 116.789 23.2V19.324H115.937V18.424H116.789V16.768H117.881V18.424H119.597V19.324H117.881ZM126.987 25.108C126.371 25.108 125.811 24.968 125.307 24.688C124.811 24.408 124.419 24.012 124.131 23.5C123.851 22.98 123.711 22.38 123.711 21.7C123.711 21.028 123.855 20.436 124.143 19.924C124.439 19.404 124.839 19.008 125.343 18.736C125.847 18.456 126.411 18.316 127.035 18.316C127.659 18.316 128.223 18.456 128.727 18.736C129.231 19.008 129.627 19.4 129.915 19.912C130.211 20.424 130.359 21.02 130.359 21.7C130.359 22.38 130.207 22.98 129.903 23.5C129.607 24.012 129.203 24.408 128.691 24.688C128.179 24.968 127.611 25.108 126.987 25.108ZM126.987 24.148C127.379 24.148 127.747 24.056 128.091 23.872C128.435 23.688 128.711 23.412 128.919 23.044C129.135 22.676 129.243 22.228 129.243 21.7C129.243 21.172 129.139 20.724 128.931 20.356C128.723 19.988 128.451 19.716 128.115 19.54C127.779 19.356 127.415 19.264 127.023 19.264C126.623 19.264 126.255 19.356 125.919 19.54C125.591 19.716 125.327 19.988 125.127 20.356C124.927 20.724 124.827 21.172 124.827 21.7C124.827 22.236 124.923 22.688 125.115 23.056C125.315 23.424 125.579 23.7 125.907 23.884C126.235 24.06 126.595 24.148 126.987 24.148ZM132.887 19.492C133.079 19.116 133.351 18.824 133.703 18.616C134.063 18.408 134.499 18.304 135.011 18.304V19.432H134.723C133.499 19.432 132.887 20.096 132.887 21.424V25H131.795V18.424H132.887V19.492ZM142.075 16.636C142.987 16.636 143.775 16.808 144.439 17.152C145.111 17.488 145.623 17.972 145.975 18.604C146.335 19.236 146.515 19.98 146.515 20.836C146.515 21.692 146.335 22.436 145.975 23.068C145.623 23.692 145.111 24.172 144.439 24.508C143.775 24.836 142.987 25 142.075 25H139.471V16.636H142.075ZM142.075 24.1C143.155 24.1 143.979 23.816 144.547 23.248C145.115 22.672 145.399 21.868 145.399 20.836C145.399 19.796 145.111 18.984 144.535 18.4C143.967 17.816 143.147 17.524 142.075 17.524H140.563V24.1H142.075ZM153.955 21.46C153.955 21.668 153.943 21.888 153.919 22.12H148.663C148.703 22.768 148.923 23.276 149.323 23.644C149.731 24.004 150.223 24.184 150.799 24.184C151.271 24.184 151.663 24.076 151.975 23.86C152.295 23.636 152.519 23.34 152.647 22.972H153.823C153.647 23.604 153.295 24.12 152.767 24.52C152.239 24.912 151.583 25.108 150.799 25.108C150.175 25.108 149.615 24.968 149.119 24.688C148.631 24.408 148.247 24.012 147.967 23.5C147.687 22.98 147.547 22.38 147.547 21.7C147.547 21.02 147.683 20.424 147.955 19.912C148.227 19.4 148.607 19.008 149.095 18.736C149.591 18.456 150.159 18.316 150.799 18.316C151.423 18.316 151.975 18.452 152.455 18.724C152.935 18.996 153.303 19.372 153.559 19.852C153.823 20.324 153.955 20.86 153.955 21.46ZM152.827 21.232C152.827 20.816 152.735 20.46 152.551 20.164C152.367 19.86 152.115 19.632 151.795 19.48C151.483 19.32 151.135 19.24 150.751 19.24C150.199 19.24 149.727 19.416 149.335 19.768C148.951 20.12 148.731 20.608 148.675 21.232H152.827ZM156.489 19.648C156.713 19.256 157.041 18.936 157.473 18.688C157.905 18.44 158.397 18.316 158.949 18.316C159.541 18.316 160.073 18.456 160.545 18.736C161.017 19.016 161.389 19.412 161.661 19.924C161.933 20.428 162.069 21.016 162.069 21.688C162.069 22.352 161.933 22.944 161.661 23.464C161.389 23.984 161.013 24.388 160.533 24.676C160.061 24.964 159.533 25.108 158.949 25.108C158.381 25.108 157.881 24.984 157.449 24.736C157.025 24.488 156.705 24.172 156.489 23.788V25H155.397V16.12H156.489V19.648ZM160.953 21.688C160.953 21.192 160.853 20.76 160.653 20.392C160.453 20.024 160.181 19.744 159.837 19.552C159.501 19.36 159.129 19.264 158.721 19.264C158.321 19.264 157.949 19.364 157.605 19.564C157.269 19.756 156.997 20.04 156.789 20.416C156.589 20.784 156.489 21.212 156.489 21.7C156.489 22.196 156.589 22.632 156.789 23.008C156.997 23.376 157.269 23.66 157.605 23.86C157.949 24.052 158.321 24.148 158.721 24.148C159.129 24.148 159.501 24.052 159.837 23.86C160.181 23.66 160.453 23.376 160.653 23.008C160.853 22.632 160.953 22.192 160.953 21.688ZM164.07 17.356C163.862 17.356 163.686 17.284 163.542 17.14C163.398 16.996 163.326 16.82 163.326 16.612C163.326 16.404 163.398 16.228 163.542 16.084C163.686 15.94 163.862 15.868 164.07 15.868C164.27 15.868 164.438 15.94 164.574 16.084C164.718 16.228 164.79 16.404 164.79 16.612C164.79 16.82 164.718 16.996 164.574 17.14C164.438 17.284 164.27 17.356 164.07 17.356ZM164.598 18.424V25H163.506V18.424H164.598ZM167.791 19.324V23.2C167.791 23.52 167.859 23.748 167.995 23.884C168.131 24.012 168.367 24.076 168.703 24.076H169.507V25H168.523C167.915 25 167.459 24.86 167.155 24.58C166.851 24.3 166.699 23.84 166.699 23.2V19.324H165.847V18.424H166.699V16.768H167.791V18.424H169.507V19.324H167.791ZM173.621 20.812C173.621 19.996 173.805 19.264 174.173 18.616C174.541 17.96 175.041 17.448 175.673 17.08C176.313 16.712 177.021 16.528 177.797 16.528C178.709 16.528 179.505 16.748 180.185 17.188C180.865 17.628 181.361 18.252 181.673 19.06H180.365C180.133 18.556 179.797 18.168 179.357 17.896C178.925 17.624 178.405 17.488 177.797 17.488C177.213 17.488 176.689 17.624 176.225 17.896C175.761 18.168 175.397 18.556 175.133 19.06C174.869 19.556 174.737 20.14 174.737 20.812C174.737 21.476 174.869 22.06 175.133 22.564C175.397 23.06 175.761 23.444 176.225 23.716C176.689 23.988 177.213 24.124 177.797 24.124C178.405 24.124 178.925 23.992 179.357 23.728C179.797 23.456 180.133 23.068 180.365 22.564H181.673C181.361 23.364 180.865 23.984 180.185 24.424C179.505 24.856 178.709 25.072 177.797 25.072C177.021 25.072 176.313 24.892 175.673 24.532C175.041 24.164 174.541 23.656 174.173 23.008C173.805 22.36 173.621 21.628 173.621 20.812ZM182.891 21.688C182.891 21.016 183.027 20.428 183.299 19.924C183.571 19.412 183.943 19.016 184.415 18.736C184.895 18.456 185.427 18.316 186.011 18.316C186.587 18.316 187.087 18.44 187.511 18.688C187.935 18.936 188.251 19.248 188.459 19.624V18.424H189.563V25H188.459V23.776C188.243 24.16 187.919 24.48 187.487 24.736C187.063 24.984 186.567 25.108 185.999 25.108C185.415 25.108 184.887 24.964 184.415 24.676C183.943 24.388 183.571 23.984 183.299 23.464C183.027 22.944 182.891 22.352 182.891 21.688ZM188.459 21.7C188.459 21.204 188.359 20.772 188.159 20.404C187.959 20.036 187.687 19.756 187.343 19.564C187.007 19.364 186.635 19.264 186.227 19.264C185.819 19.264 185.447 19.36 185.111 19.552C184.775 19.744 184.507 20.024 184.307 20.392C184.107 20.76 184.007 21.192 184.007 21.688C184.007 22.192 184.107 22.632 184.307 23.008C184.507 23.376 184.775 23.66 185.111 23.86C185.447 24.052 185.819 24.148 186.227 24.148C186.635 24.148 187.007 24.052 187.343 23.86C187.687 23.66 187.959 23.376 188.159 23.008C188.359 22.632 188.459 22.196 188.459 21.7ZM192.5 19.492C192.692 19.116 192.964 18.824 193.316 18.616C193.676 18.408 194.112 18.304 194.624 18.304V19.432H194.336C193.112 19.432 192.5 20.096 192.5 21.424V25H191.408V18.424H192.5V19.492ZM195.477 21.688C195.477 21.016 195.613 20.428 195.885 19.924C196.157 19.412 196.529 19.016 197.001 18.736C197.481 18.456 198.017 18.316 198.609 18.316C199.121 18.316 199.597 18.436 200.037 18.676C200.477 18.908 200.813 19.216 201.045 19.6V16.12H202.149V25H201.045V23.764C200.829 24.156 200.509 24.48 200.085 24.736C199.661 24.984 199.165 25.108 198.597 25.108C198.013 25.108 197.481 24.964 197.001 24.676C196.529 24.388 196.157 23.984 195.885 23.464C195.613 22.944 195.477 22.352 195.477 21.688ZM201.045 21.7C201.045 21.204 200.945 20.772 200.745 20.404C200.545 20.036 200.273 19.756 199.929 19.564C199.593 19.364 199.221 19.264 198.813 19.264C198.405 19.264 198.033 19.36 197.697 19.552C197.361 19.744 197.093 20.024 196.893 20.392C196.693 20.76 196.593 21.192 196.593 21.688C196.593 22.192 196.693 22.632 196.893 23.008C197.093 23.376 197.361 23.66 197.697 23.86C198.033 24.052 198.405 24.148 198.813 24.148C199.221 24.148 199.593 24.052 199.929 23.86C200.273 23.66 200.545 23.376 200.745 23.008C200.945 22.632 201.045 22.196 201.045 21.7Z" fill="white"/>
<path d="M21 16.5C21 15.9033 21.2371 15.331 21.659 14.909C22.081 14.4871 22.6533 14.25 23.25 14.25H36.75C37.3467 14.25 37.919 14.4871 38.341 14.909C38.7629 15.331 39 15.9033 39 16.5V17.625H21V16.5ZM21 19.875V25.5C21 26.0967 21.2371 26.669 21.659 27.091C22.081 27.5129 22.6533 27.75 23.25 27.75H36.75C37.3467 27.75 37.919 27.5129 38.341 27.091C38.7629 26.669 39 26.0967 39 25.5V19.875H21ZM24.375 22.125H25.5C25.7984 22.125 26.0845 22.2435 26.2955 22.4545C26.5065 22.6655 26.625 22.9516 26.625 23.25V24.375C26.625 24.6734 26.5065 24.9595 26.2955 25.1705C26.0845 25.3815 25.7984 25.5 25.5 25.5H24.375C24.0766 25.5 23.7905 25.3815 23.5795 25.1705C23.3685 24.9595 23.25 24.6734 23.25 24.375V23.25C23.25 22.9516 23.3685 22.6655 23.5795 22.4545C23.7905 22.2435 24.0766 22.125 24.375 22.125Z" fill="white"/>
</svg>
