<svg width="240" height="41" viewBox="0 0 240 41" fill="none" xmlns="http://www.w3.org/2000/svg">
<rect width="240" height="41" rx="6" fill="#3D3D3D"/>
<path d="M46.576 25.084C46.024 25.084 45.528 24.988 45.088 24.796C44.656 24.596 44.316 24.324 44.068 23.98C43.82 23.628 43.692 23.224 43.684 22.768H44.848C44.888 23.16 45.048 23.492 45.328 23.764C45.616 24.028 46.032 24.16 46.576 24.16C47.096 24.16 47.504 24.032 47.8 23.776C48.104 23.512 48.256 23.176 48.256 22.768C48.256 22.448 48.168 22.188 47.992 21.988C47.816 21.788 47.596 21.636 47.332 21.532C47.068 21.428 46.712 21.316 46.264 21.196C45.712 21.052 45.268 20.908 44.932 20.764C44.604 20.62 44.32 20.396 44.08 20.092C43.848 19.78 43.732 19.364 43.732 18.844C43.732 18.388 43.848 17.984 44.08 17.632C44.312 17.28 44.636 17.008 45.052 16.816C45.476 16.624 45.96 16.528 46.504 16.528C47.288 16.528 47.928 16.724 48.424 17.116C48.928 17.508 49.212 18.028 49.276 18.676H48.076C48.036 18.356 47.868 18.076 47.572 17.836C47.276 17.588 46.884 17.464 46.396 17.464C45.94 17.464 45.568 17.584 45.28 17.824C44.992 18.056 44.848 18.384 44.848 18.808C44.848 19.112 44.932 19.36 45.1 19.552C45.276 19.744 45.488 19.892 45.736 19.996C45.992 20.092 46.348 20.204 46.804 20.332C47.356 20.484 47.8 20.636 48.136 20.788C48.472 20.932 48.76 21.16 49 21.472C49.24 21.776 49.36 22.192 49.36 22.72C49.36 23.128 49.252 23.512 49.036 23.872C48.82 24.232 48.5 24.524 48.076 24.748C47.652 24.972 47.152 25.084 46.576 25.084ZM52.059 19.636C52.275 19.26 52.595 18.948 53.019 18.7C53.451 18.444 53.951 18.316 54.519 18.316C55.103 18.316 55.631 18.456 56.103 18.736C56.583 19.016 56.959 19.412 57.231 19.924C57.503 20.428 57.639 21.016 57.639 21.688C57.639 22.352 57.503 22.944 57.231 23.464C56.959 23.984 56.583 24.388 56.103 24.676C55.631 24.964 55.103 25.108 54.519 25.108C53.959 25.108 53.463 24.984 53.031 24.736C52.607 24.48 52.283 24.164 52.059 23.788V28.12H50.967V18.424H52.059V19.636ZM56.523 21.688C56.523 21.192 56.423 20.76 56.223 20.392C56.023 20.024 55.751 19.744 55.407 19.552C55.071 19.36 54.699 19.264 54.291 19.264C53.891 19.264 53.519 19.364 53.175 19.564C52.839 19.756 52.567 20.04 52.359 20.416C52.159 20.784 52.059 21.212 52.059 21.7C52.059 22.196 52.159 22.632 52.359 23.008C52.567 23.376 52.839 23.66 53.175 23.86C53.519 24.052 53.891 24.148 54.291 24.148C54.699 24.148 55.071 24.052 55.407 23.86C55.751 23.66 56.023 23.376 56.223 23.008C56.423 22.632 56.523 22.192 56.523 21.688ZM60.1683 16.12V25H59.0763V16.12H60.1683ZM62.5935 17.356C62.3855 17.356 62.2095 17.284 62.0655 17.14C61.9215 16.996 61.8495 16.82 61.8495 16.612C61.8495 16.404 61.9215 16.228 62.0655 16.084C62.2095 15.94 62.3855 15.868 62.5935 15.868C62.7935 15.868 62.9615 15.94 63.0975 16.084C63.2415 16.228 63.3135 16.404 63.3135 16.612C63.3135 16.82 63.2415 16.996 63.0975 17.14C62.9615 17.284 62.7935 17.356 62.5935 17.356ZM63.1215 18.424V25H62.0295V18.424H63.1215ZM66.3146 19.324V23.2C66.3146 23.52 66.3826 23.748 66.5186 23.884C66.6546 24.012 66.8906 24.076 67.2266 24.076H68.0306V25H67.0466C66.4386 25 65.9826 24.86 65.6786 24.58C65.3746 24.3 65.2226 23.84 65.2226 23.2V19.324H64.3706V18.424H65.2226V16.768H66.3146V18.424H68.0306V19.324H66.3146ZM78.1449 19.084C78.1449 19.78 77.9049 20.36 77.4249 20.824C76.9529 21.28 76.2289 21.508 75.2529 21.508H73.6449V25H72.5529V16.636H75.2529C76.1969 16.636 76.9129 16.864 77.4009 17.32C77.8969 17.776 78.1449 18.364 78.1449 19.084ZM75.2529 20.608C75.8609 20.608 76.3089 20.476 76.5969 20.212C76.8849 19.948 77.0289 19.572 77.0289 19.084C77.0289 18.052 76.4369 17.536 75.2529 17.536H73.6449V20.608H75.2529ZM79.0941 21.688C79.0941 21.016 79.2301 20.428 79.5021 19.924C79.7741 19.412 80.1461 19.016 80.6181 18.736C81.0981 18.456 81.6301 18.316 82.2141 18.316C82.7901 18.316 83.2901 18.44 83.7141 18.688C84.1381 18.936 84.4541 19.248 84.6621 19.624V18.424H85.7661V25H84.6621V23.776C84.4461 24.16 84.1221 24.48 83.6901 24.736C83.2661 24.984 82.7701 25.108 82.2021 25.108C81.6181 25.108 81.0901 24.964 80.6181 24.676C80.1461 24.388 79.7741 23.984 79.5021 23.464C79.2301 22.944 79.0941 22.352 79.0941 21.688ZM84.6621 21.7C84.6621 21.204 84.5621 20.772 84.3621 20.404C84.1621 20.036 83.8901 19.756 83.5461 19.564C83.2101 19.364 82.8381 19.264 82.4301 19.264C82.0221 19.264 81.6501 19.36 81.3141 19.552C80.9781 19.744 80.7101 20.024 80.5101 20.392C80.3101 20.76 80.2101 21.192 80.2101 21.688C80.2101 22.192 80.3101 22.632 80.5101 23.008C80.7101 23.376 80.9781 23.66 81.3141 23.86C81.6501 24.052 82.0221 24.148 82.4301 24.148C82.8381 24.148 83.2101 24.052 83.5461 23.86C83.8901 23.66 84.1621 23.376 84.3621 23.008C84.5621 22.632 84.6621 22.196 84.6621 21.7ZM93.2755 18.424L89.3155 28.096H88.1875L89.4835 24.928L86.8315 18.424H88.0435L90.1075 23.752L92.1475 18.424H93.2755ZM102.281 18.304C102.793 18.304 103.249 18.412 103.649 18.628C104.049 18.836 104.365 19.152 104.597 19.576C104.829 20 104.945 20.516 104.945 21.124V25H103.865V21.28C103.865 20.624 103.701 20.124 103.373 19.78C103.053 19.428 102.617 19.252 102.065 19.252C101.497 19.252 101.045 19.436 100.709 19.804C100.373 20.164 100.205 20.688 100.205 21.376V25H99.1252V21.28C99.1252 20.624 98.9612 20.124 98.6332 19.78C98.3132 19.428 97.8772 19.252 97.3252 19.252C96.7572 19.252 96.3052 19.436 95.9692 19.804C95.6332 20.164 95.4652 20.688 95.4652 21.376V25H94.3732V18.424H95.4652V19.372C95.6812 19.028 95.9692 18.764 96.3292 18.58C96.6972 18.396 97.1012 18.304 97.5412 18.304C98.0932 18.304 98.5812 18.428 99.0052 18.676C99.4292 18.924 99.7452 19.288 99.9532 19.768C100.137 19.304 100.441 18.944 100.865 18.688C101.289 18.432 101.761 18.304 102.281 18.304ZM112.737 21.46C112.737 21.668 112.725 21.888 112.701 22.12H107.445C107.485 22.768 107.705 23.276 108.105 23.644C108.513 24.004 109.005 24.184 109.581 24.184C110.053 24.184 110.445 24.076 110.757 23.86C111.077 23.636 111.301 23.34 111.429 22.972H112.605C112.429 23.604 112.077 24.12 111.549 24.52C111.021 24.912 110.365 25.108 109.581 25.108C108.957 25.108 108.397 24.968 107.901 24.688C107.413 24.408 107.029 24.012 106.749 23.5C106.469 22.98 106.329 22.38 106.329 21.7C106.329 21.02 106.465 20.424 106.737 19.912C107.009 19.4 107.389 19.008 107.877 18.736C108.373 18.456 108.941 18.316 109.581 18.316C110.205 18.316 110.757 18.452 111.237 18.724C111.717 18.996 112.085 19.372 112.341 19.852C112.605 20.324 112.737 20.86 112.737 21.46ZM111.609 21.232C111.609 20.816 111.517 20.46 111.333 20.164C111.149 19.86 110.897 19.632 110.577 19.48C110.265 19.32 109.917 19.24 109.533 19.24C108.981 19.24 108.509 19.416 108.117 19.768C107.733 20.12 107.513 20.608 107.457 21.232H111.609ZM117.382 18.304C118.182 18.304 118.83 18.548 119.326 19.036C119.822 19.516 120.07 20.212 120.07 21.124V25H118.99V21.28C118.99 20.624 118.826 20.124 118.498 19.78C118.17 19.428 117.722 19.252 117.154 19.252C116.578 19.252 116.118 19.432 115.774 19.792C115.438 20.152 115.27 20.676 115.27 21.364V25H114.178V18.424H115.27V19.36C115.486 19.024 115.778 18.764 116.146 18.58C116.522 18.396 116.934 18.304 117.382 18.304ZM123.186 19.324V23.2C123.186 23.52 123.254 23.748 123.39 23.884C123.526 24.012 123.762 24.076 124.098 24.076H124.902V25H123.918C123.31 25 122.854 24.86 122.55 24.58C122.246 24.3 122.094 23.84 122.094 23.2V19.324H121.242V18.424H122.094V16.768H123.186V18.424H124.902V19.324H123.186ZM133.984 20.14V21.064H129.196V20.14H133.984ZM147.717 16.696V25H146.625V18.808L143.865 25H143.097L140.325 18.796V25H139.233V16.696H140.409L143.481 23.56L146.553 16.696H147.717ZM155.401 18.424V25H154.309V24.028C154.101 24.364 153.809 24.628 153.433 24.82C153.065 25.004 152.657 25.096 152.209 25.096C151.697 25.096 151.237 24.992 150.829 24.784C150.421 24.568 150.097 24.248 149.857 23.824C149.625 23.4 149.509 22.884 149.509 22.276V18.424H150.589V22.132C150.589 22.78 150.753 23.28 151.081 23.632C151.409 23.976 151.857 24.148 152.425 24.148C153.009 24.148 153.469 23.968 153.805 23.608C154.141 23.248 154.309 22.724 154.309 22.036V18.424H155.401ZM158.336 16.12V25H157.244V16.12H158.336ZM161.529 19.324V23.2C161.529 23.52 161.597 23.748 161.733 23.884C161.869 24.012 162.105 24.076 162.441 24.076H163.245V25H162.261C161.653 25 161.197 24.86 160.893 24.58C160.589 24.3 160.437 23.84 160.437 23.2V19.324H159.585V18.424H160.437V16.768H161.529V18.424H163.245V19.324H161.529ZM165.133 17.356C164.925 17.356 164.749 17.284 164.605 17.14C164.461 16.996 164.389 16.82 164.389 16.612C164.389 16.404 164.461 16.228 164.605 16.084C164.749 15.94 164.925 15.868 165.133 15.868C165.333 15.868 165.501 15.94 165.637 16.084C165.781 16.228 165.853 16.404 165.853 16.612C165.853 16.82 165.781 16.996 165.637 17.14C165.501 17.284 165.333 17.356 165.133 17.356ZM165.661 18.424V25H164.569V18.424H165.661ZM168.614 19.636C168.83 19.26 169.15 18.948 169.574 18.7C170.006 18.444 170.506 18.316 171.074 18.316C171.658 18.316 172.186 18.456 172.658 18.736C173.138 19.016 173.514 19.412 173.786 19.924C174.058 20.428 174.194 21.016 174.194 21.688C174.194 22.352 174.058 22.944 173.786 23.464C173.514 23.984 173.138 24.388 172.658 24.676C172.186 24.964 171.658 25.108 171.074 25.108C170.514 25.108 170.018 24.984 169.586 24.736C169.162 24.48 168.838 24.164 168.614 23.788V28.12H167.522V18.424H168.614V19.636ZM173.078 21.688C173.078 21.192 172.978 20.76 172.778 20.392C172.578 20.024 172.306 19.744 171.962 19.552C171.626 19.36 171.254 19.264 170.846 19.264C170.446 19.264 170.074 19.364 169.73 19.564C169.394 19.756 169.122 20.04 168.914 20.416C168.714 20.784 168.614 21.212 168.614 21.7C168.614 22.196 168.714 22.632 168.914 23.008C169.122 23.376 169.394 23.66 169.73 23.86C170.074 24.052 170.446 24.148 170.846 24.148C171.254 24.148 171.626 24.052 171.962 23.86C172.306 23.66 172.578 23.376 172.778 23.008C172.978 22.632 173.078 22.192 173.078 21.688ZM176.723 16.12V25H175.631V16.12H176.723ZM184.584 21.46C184.584 21.668 184.572 21.888 184.548 22.12H179.292C179.332 22.768 179.552 23.276 179.952 23.644C180.36 24.004 180.852 24.184 181.428 24.184C181.9 24.184 182.292 24.076 182.604 23.86C182.924 23.636 183.148 23.34 183.276 22.972H184.452C184.276 23.604 183.924 24.12 183.396 24.52C182.868 24.912 182.212 25.108 181.428 25.108C180.804 25.108 180.244 24.968 179.748 24.688C179.26 24.408 178.876 24.012 178.596 23.5C178.316 22.98 178.176 22.38 178.176 21.7C178.176 21.02 178.312 20.424 178.584 19.912C178.856 19.4 179.236 19.008 179.724 18.736C180.22 18.456 180.788 18.316 181.428 18.316C182.052 18.316 182.604 18.452 183.084 18.724C183.564 18.996 183.932 19.372 184.188 19.852C184.452 20.324 184.584 20.86 184.584 21.46ZM183.456 21.232C183.456 20.816 183.364 20.46 183.18 20.164C182.996 19.86 182.744 19.632 182.424 19.48C182.112 19.32 181.764 19.24 181.38 19.24C180.828 19.24 180.356 19.416 179.964 19.768C179.58 20.12 179.36 20.608 179.304 21.232H183.456ZM188.817 20.812C188.817 19.996 189.001 19.264 189.369 18.616C189.737 17.96 190.237 17.448 190.869 17.08C191.509 16.712 192.217 16.528 192.993 16.528C193.905 16.528 194.701 16.748 195.381 17.188C196.061 17.628 196.557 18.252 196.869 19.06H195.561C195.329 18.556 194.993 18.168 194.553 17.896C194.121 17.624 193.601 17.488 192.993 17.488C192.409 17.488 191.885 17.624 191.421 17.896C190.957 18.168 190.593 18.556 190.329 19.06C190.065 19.556 189.933 20.14 189.933 20.812C189.933 21.476 190.065 22.06 190.329 22.564C190.593 23.06 190.957 23.444 191.421 23.716C191.885 23.988 192.409 24.124 192.993 24.124C193.601 24.124 194.121 23.992 194.553 23.728C194.993 23.456 195.329 23.068 195.561 22.564H196.869C196.557 23.364 196.061 23.984 195.381 24.424C194.701 24.856 193.905 25.072 192.993 25.072C192.217 25.072 191.509 24.892 190.869 24.532C190.237 24.164 189.737 23.656 189.369 23.008C189.001 22.36 188.817 21.628 188.817 20.812ZM198.086 21.688C198.086 21.016 198.222 20.428 198.494 19.924C198.766 19.412 199.138 19.016 199.61 18.736C200.09 18.456 200.622 18.316 201.206 18.316C201.782 18.316 202.282 18.44 202.706 18.688C203.13 18.936 203.446 19.248 203.654 19.624V18.424H204.758V25H203.654V23.776C203.438 24.16 203.114 24.48 202.682 24.736C202.258 24.984 201.762 25.108 201.194 25.108C200.61 25.108 200.082 24.964 199.61 24.676C199.138 24.388 198.766 23.984 198.494 23.464C198.222 22.944 198.086 22.352 198.086 21.688ZM203.654 21.7C203.654 21.204 203.554 20.772 203.354 20.404C203.154 20.036 202.882 19.756 202.538 19.564C202.202 19.364 201.83 19.264 201.422 19.264C201.014 19.264 200.642 19.36 200.306 19.552C199.97 19.744 199.702 20.024 199.502 20.392C199.302 20.76 199.202 21.192 199.202 21.688C199.202 22.192 199.302 22.632 199.502 23.008C199.702 23.376 199.97 23.66 200.306 23.86C200.642 24.052 201.014 24.148 201.422 24.148C201.83 24.148 202.202 24.052 202.538 23.86C202.882 23.66 203.154 23.376 203.354 23.008C203.554 22.632 203.654 22.196 203.654 21.7ZM207.696 19.492C207.888 19.116 208.16 18.824 208.512 18.616C208.872 18.408 209.308 18.304 209.82 18.304V19.432H209.532C208.308 19.432 207.696 20.096 207.696 21.424V25H206.604V18.424H207.696V19.492ZM210.672 21.688C210.672 21.016 210.808 20.428 211.08 19.924C211.352 19.412 211.724 19.016 212.196 18.736C212.676 18.456 213.212 18.316 213.804 18.316C214.316 18.316 214.792 18.436 215.232 18.676C215.672 18.908 216.008 19.216 216.24 19.6V16.12H217.344V25H216.24V23.764C216.024 24.156 215.704 24.48 215.28 24.736C214.856 24.984 214.36 25.108 213.792 25.108C213.208 25.108 212.676 24.964 212.196 24.676C211.724 24.388 211.352 23.984 211.08 23.464C210.808 22.944 210.672 22.352 210.672 21.688ZM216.24 21.7C216.24 21.204 216.14 20.772 215.94 20.404C215.74 20.036 215.468 19.756 215.124 19.564C214.788 19.364 214.416 19.264 214.008 19.264C213.6 19.264 213.228 19.36 212.892 19.552C212.556 19.744 212.288 20.024 212.088 20.392C211.888 20.76 211.788 21.192 211.788 21.688C211.788 22.192 211.888 22.632 212.088 23.008C212.288 23.376 212.556 23.66 212.892 23.86C213.228 24.052 213.6 24.148 214.008 24.148C214.416 24.148 214.788 24.052 215.124 23.86C215.468 23.66 215.74 23.376 215.94 23.008C216.14 22.632 216.24 22.196 216.24 21.7ZM221.518 25.108C221.014 25.108 220.562 25.024 220.162 24.856C219.762 24.68 219.446 24.44 219.214 24.136C218.982 23.824 218.854 23.468 218.83 23.068H219.958C219.99 23.396 220.142 23.664 220.414 23.872C220.694 24.08 221.058 24.184 221.506 24.184C221.922 24.184 222.25 24.092 222.49 23.908C222.73 23.724 222.85 23.492 222.85 23.212C222.85 22.924 222.722 22.712 222.466 22.576C222.21 22.432 221.814 22.292 221.278 22.156C220.79 22.028 220.39 21.9 220.078 21.772C219.774 21.636 219.51 21.44 219.286 21.184C219.07 20.92 218.962 20.576 218.962 20.152C218.962 19.816 219.062 19.508 219.262 19.228C219.462 18.948 219.746 18.728 220.114 18.568C220.482 18.4 220.902 18.316 221.374 18.316C222.102 18.316 222.69 18.5 223.138 18.868C223.586 19.236 223.826 19.74 223.858 20.38H222.766C222.742 20.036 222.602 19.76 222.346 19.552C222.098 19.344 221.762 19.24 221.338 19.24C220.946 19.24 220.634 19.324 220.402 19.492C220.17 19.66 220.054 19.88 220.054 20.152C220.054 20.368 220.122 20.548 220.258 20.692C220.402 20.828 220.578 20.94 220.786 21.028C221.002 21.108 221.298 21.2 221.674 21.304C222.146 21.432 222.53 21.56 222.826 21.688C223.122 21.808 223.374 21.992 223.582 22.24C223.798 22.488 223.91 22.812 223.918 23.212C223.918 23.572 223.818 23.896 223.618 24.184C223.418 24.472 223.134 24.7 222.766 24.868C222.406 25.028 221.99 25.108 221.518 25.108Z" fill="white"/>
<path d="M35.0833 16.4167V28.3333H17.6666V26.5H33.25V16.4167H35.0833ZM31.4166 24.6667H14.9166V13.6667H31.4166V24.6667ZM25.9166 19.1667C25.9166 17.645 24.6883 16.4167 23.1666 16.4167C21.645 16.4167 20.4166 17.645 20.4166 19.1667C20.4166 20.6883 21.645 21.9167 23.1666 21.9167C24.6883 21.9167 25.9166 20.6883 25.9166 19.1667Z" fill="white"/>
</svg>
