<svg width="336" height="41" viewBox="0 0 336 41" fill="none" xmlns="http://www.w3.org/2000/svg">
<rect width="336" height="41" rx="6" fill="#3D3D3D"/>
<path d="M94.576 25.084C94.024 25.084 93.528 24.988 93.088 24.796C92.656 24.596 92.316 24.324 92.068 23.98C91.82 23.628 91.692 23.224 91.684 22.768H92.848C92.888 23.16 93.048 23.492 93.328 23.764C93.616 24.028 94.032 24.16 94.576 24.16C95.096 24.16 95.504 24.032 95.8 23.776C96.104 23.512 96.256 23.176 96.256 22.768C96.256 22.448 96.168 22.188 95.992 21.988C95.816 21.788 95.596 21.636 95.332 21.532C95.068 21.428 94.712 21.316 94.264 21.196C93.712 21.052 93.268 20.908 92.932 20.764C92.604 20.62 92.32 20.396 92.08 20.092C91.848 19.78 91.732 19.364 91.732 18.844C91.732 18.388 91.848 17.984 92.08 17.632C92.312 17.28 92.636 17.008 93.052 16.816C93.476 16.624 93.96 16.528 94.504 16.528C95.288 16.528 95.928 16.724 96.424 17.116C96.928 17.508 97.212 18.028 97.276 18.676H96.076C96.036 18.356 95.868 18.076 95.572 17.836C95.276 17.588 94.884 17.464 94.396 17.464C93.94 17.464 93.568 17.584 93.28 17.824C92.992 18.056 92.848 18.384 92.848 18.808C92.848 19.112 92.932 19.36 93.1 19.552C93.276 19.744 93.488 19.892 93.736 19.996C93.992 20.092 94.348 20.204 94.804 20.332C95.356 20.484 95.8 20.636 96.136 20.788C96.472 20.932 96.76 21.16 97 21.472C97.24 21.776 97.36 22.192 97.36 22.72C97.36 23.128 97.252 23.512 97.036 23.872C96.82 24.232 96.5 24.524 96.076 24.748C95.652 24.972 95.152 25.084 94.576 25.084ZM100.059 19.636C100.275 19.26 100.595 18.948 101.019 18.7C101.451 18.444 101.951 18.316 102.519 18.316C103.103 18.316 103.631 18.456 104.103 18.736C104.583 19.016 104.959 19.412 105.231 19.924C105.503 20.428 105.639 21.016 105.639 21.688C105.639 22.352 105.503 22.944 105.231 23.464C104.959 23.984 104.583 24.388 104.103 24.676C103.631 24.964 103.103 25.108 102.519 25.108C101.959 25.108 101.463 24.984 101.031 24.736C100.607 24.48 100.283 24.164 100.059 23.788V28.12H98.967V18.424H100.059V19.636ZM104.523 21.688C104.523 21.192 104.423 20.76 104.223 20.392C104.023 20.024 103.751 19.744 103.407 19.552C103.071 19.36 102.699 19.264 102.291 19.264C101.891 19.264 101.519 19.364 101.175 19.564C100.839 19.756 100.567 20.04 100.359 20.416C100.159 20.784 100.059 21.212 100.059 21.7C100.059 22.196 100.159 22.632 100.359 23.008C100.567 23.376 100.839 23.66 101.175 23.86C101.519 24.052 101.891 24.148 102.291 24.148C102.699 24.148 103.071 24.052 103.407 23.86C103.751 23.66 104.023 23.376 104.223 23.008C104.423 22.632 104.523 22.192 104.523 21.688ZM108.168 16.12V25H107.076V16.12H108.168ZM110.593 17.356C110.385 17.356 110.209 17.284 110.065 17.14C109.921 16.996 109.849 16.82 109.849 16.612C109.849 16.404 109.921 16.228 110.065 16.084C110.209 15.94 110.385 15.868 110.593 15.868C110.793 15.868 110.961 15.94 111.097 16.084C111.241 16.228 111.313 16.404 111.313 16.612C111.313 16.82 111.241 16.996 111.097 17.14C110.961 17.284 110.793 17.356 110.593 17.356ZM111.121 18.424V25H110.029V18.424H111.121ZM114.315 19.324V23.2C114.315 23.52 114.383 23.748 114.519 23.884C114.655 24.012 114.891 24.076 115.227 24.076H116.031V25H115.047C114.439 25 113.983 24.86 113.679 24.58C113.375 24.3 113.223 23.84 113.223 23.2V19.324H112.371V18.424H113.223V16.768H114.315V18.424H116.031V19.324H114.315ZM126.145 19.084C126.145 19.78 125.905 20.36 125.425 20.824C124.953 21.28 124.229 21.508 123.253 21.508H121.645V25H120.553V16.636H123.253C124.197 16.636 124.913 16.864 125.401 17.32C125.897 17.776 126.145 18.364 126.145 19.084ZM123.253 20.608C123.861 20.608 124.309 20.476 124.597 20.212C124.885 19.948 125.029 19.572 125.029 19.084C125.029 18.052 124.437 17.536 123.253 17.536H121.645V20.608H123.253ZM127.094 21.688C127.094 21.016 127.23 20.428 127.502 19.924C127.774 19.412 128.146 19.016 128.618 18.736C129.098 18.456 129.63 18.316 130.214 18.316C130.79 18.316 131.29 18.44 131.714 18.688C132.138 18.936 132.454 19.248 132.662 19.624V18.424H133.766V25H132.662V23.776C132.446 24.16 132.122 24.48 131.69 24.736C131.266 24.984 130.77 25.108 130.202 25.108C129.618 25.108 129.09 24.964 128.618 24.676C128.146 24.388 127.774 23.984 127.502 23.464C127.23 22.944 127.094 22.352 127.094 21.688ZM132.662 21.7C132.662 21.204 132.562 20.772 132.362 20.404C132.162 20.036 131.89 19.756 131.546 19.564C131.21 19.364 130.838 19.264 130.43 19.264C130.022 19.264 129.65 19.36 129.314 19.552C128.978 19.744 128.71 20.024 128.51 20.392C128.31 20.76 128.21 21.192 128.21 21.688C128.21 22.192 128.31 22.632 128.51 23.008C128.71 23.376 128.978 23.66 129.314 23.86C129.65 24.052 130.022 24.148 130.43 24.148C130.838 24.148 131.21 24.052 131.546 23.86C131.89 23.66 132.162 23.376 132.362 23.008C132.562 22.632 132.662 22.196 132.662 21.7ZM141.276 18.424L137.316 28.096H136.188L137.484 24.928L134.832 18.424H136.044L138.108 23.752L140.148 18.424H141.276ZM150.281 18.304C150.793 18.304 151.249 18.412 151.649 18.628C152.049 18.836 152.365 19.152 152.597 19.576C152.829 20 152.945 20.516 152.945 21.124V25H151.865V21.28C151.865 20.624 151.701 20.124 151.373 19.78C151.053 19.428 150.617 19.252 150.065 19.252C149.497 19.252 149.045 19.436 148.709 19.804C148.373 20.164 148.205 20.688 148.205 21.376V25H147.125V21.28C147.125 20.624 146.961 20.124 146.633 19.78C146.313 19.428 145.877 19.252 145.325 19.252C144.757 19.252 144.305 19.436 143.969 19.804C143.633 20.164 143.465 20.688 143.465 21.376V25H142.373V18.424H143.465V19.372C143.681 19.028 143.969 18.764 144.329 18.58C144.697 18.396 145.101 18.304 145.541 18.304C146.093 18.304 146.581 18.428 147.005 18.676C147.429 18.924 147.745 19.288 147.953 19.768C148.137 19.304 148.441 18.944 148.865 18.688C149.289 18.432 149.761 18.304 150.281 18.304ZM160.737 21.46C160.737 21.668 160.725 21.888 160.701 22.12H155.445C155.485 22.768 155.705 23.276 156.105 23.644C156.513 24.004 157.005 24.184 157.581 24.184C158.053 24.184 158.445 24.076 158.757 23.86C159.077 23.636 159.301 23.34 159.429 22.972H160.605C160.429 23.604 160.077 24.12 159.549 24.52C159.021 24.912 158.365 25.108 157.581 25.108C156.957 25.108 156.397 24.968 155.901 24.688C155.413 24.408 155.029 24.012 154.749 23.5C154.469 22.98 154.329 22.38 154.329 21.7C154.329 21.02 154.465 20.424 154.737 19.912C155.009 19.4 155.389 19.008 155.877 18.736C156.373 18.456 156.941 18.316 157.581 18.316C158.205 18.316 158.757 18.452 159.237 18.724C159.717 18.996 160.085 19.372 160.341 19.852C160.605 20.324 160.737 20.86 160.737 21.46ZM159.609 21.232C159.609 20.816 159.517 20.46 159.333 20.164C159.149 19.86 158.897 19.632 158.577 19.48C158.265 19.32 157.917 19.24 157.533 19.24C156.981 19.24 156.509 19.416 156.117 19.768C155.733 20.12 155.513 20.608 155.457 21.232H159.609ZM165.382 18.304C166.182 18.304 166.83 18.548 167.326 19.036C167.822 19.516 168.07 20.212 168.07 21.124V25H166.99V21.28C166.99 20.624 166.826 20.124 166.498 19.78C166.17 19.428 165.722 19.252 165.154 19.252C164.578 19.252 164.118 19.432 163.774 19.792C163.438 20.152 163.27 20.676 163.27 21.364V25H162.178V18.424H163.27V19.36C163.486 19.024 163.778 18.764 164.146 18.58C164.522 18.396 164.934 18.304 165.382 18.304ZM171.186 19.324V23.2C171.186 23.52 171.254 23.748 171.39 23.884C171.526 24.012 171.762 24.076 172.098 24.076H172.902V25H171.918C171.31 25 170.854 24.86 170.55 24.58C170.246 24.3 170.094 23.84 170.094 23.2V19.324H169.242V18.424H170.094V16.768H171.186V18.424H172.902V19.324H171.186ZM181.984 20.14V21.064H177.196V20.14H181.984ZM195.717 16.696V25H194.625V18.808L191.865 25H191.097L188.325 18.796V25H187.233V16.696H188.409L191.481 23.56L194.553 16.696H195.717ZM203.401 18.424V25H202.309V24.028C202.101 24.364 201.809 24.628 201.433 24.82C201.065 25.004 200.657 25.096 200.209 25.096C199.697 25.096 199.237 24.992 198.829 24.784C198.421 24.568 198.097 24.248 197.857 23.824C197.625 23.4 197.509 22.884 197.509 22.276V18.424H198.589V22.132C198.589 22.78 198.753 23.28 199.081 23.632C199.409 23.976 199.857 24.148 200.425 24.148C201.009 24.148 201.469 23.968 201.805 23.608C202.141 23.248 202.309 22.724 202.309 22.036V18.424H203.401ZM206.336 16.12V25H205.244V16.12H206.336ZM209.529 19.324V23.2C209.529 23.52 209.597 23.748 209.733 23.884C209.869 24.012 210.105 24.076 210.441 24.076H211.245V25H210.261C209.653 25 209.197 24.86 208.893 24.58C208.589 24.3 208.437 23.84 208.437 23.2V19.324H207.585V18.424H208.437V16.768H209.529V18.424H211.245V19.324H209.529ZM213.133 17.356C212.925 17.356 212.749 17.284 212.605 17.14C212.461 16.996 212.389 16.82 212.389 16.612C212.389 16.404 212.461 16.228 212.605 16.084C212.749 15.94 212.925 15.868 213.133 15.868C213.333 15.868 213.501 15.94 213.637 16.084C213.781 16.228 213.853 16.404 213.853 16.612C213.853 16.82 213.781 16.996 213.637 17.14C213.501 17.284 213.333 17.356 213.133 17.356ZM213.661 18.424V25H212.569V18.424H213.661ZM216.614 19.636C216.83 19.26 217.15 18.948 217.574 18.7C218.006 18.444 218.506 18.316 219.074 18.316C219.658 18.316 220.186 18.456 220.658 18.736C221.138 19.016 221.514 19.412 221.786 19.924C222.058 20.428 222.194 21.016 222.194 21.688C222.194 22.352 222.058 22.944 221.786 23.464C221.514 23.984 221.138 24.388 220.658 24.676C220.186 24.964 219.658 25.108 219.074 25.108C218.514 25.108 218.018 24.984 217.586 24.736C217.162 24.48 216.838 24.164 216.614 23.788V28.12H215.522V18.424H216.614V19.636ZM221.078 21.688C221.078 21.192 220.978 20.76 220.778 20.392C220.578 20.024 220.306 19.744 219.962 19.552C219.626 19.36 219.254 19.264 218.846 19.264C218.446 19.264 218.074 19.364 217.73 19.564C217.394 19.756 217.122 20.04 216.914 20.416C216.714 20.784 216.614 21.212 216.614 21.7C216.614 22.196 216.714 22.632 216.914 23.008C217.122 23.376 217.394 23.66 217.73 23.86C218.074 24.052 218.446 24.148 218.846 24.148C219.254 24.148 219.626 24.052 219.962 23.86C220.306 23.66 220.578 23.376 220.778 23.008C220.978 22.632 221.078 22.192 221.078 21.688ZM224.723 16.12V25H223.631V16.12H224.723ZM232.584 21.46C232.584 21.668 232.572 21.888 232.548 22.12H227.292C227.332 22.768 227.552 23.276 227.952 23.644C228.36 24.004 228.852 24.184 229.428 24.184C229.9 24.184 230.292 24.076 230.604 23.86C230.924 23.636 231.148 23.34 231.276 22.972H232.452C232.276 23.604 231.924 24.12 231.396 24.52C230.868 24.912 230.212 25.108 229.428 25.108C228.804 25.108 228.244 24.968 227.748 24.688C227.26 24.408 226.876 24.012 226.596 23.5C226.316 22.98 226.176 22.38 226.176 21.7C226.176 21.02 226.312 20.424 226.584 19.912C226.856 19.4 227.236 19.008 227.724 18.736C228.22 18.456 228.788 18.316 229.428 18.316C230.052 18.316 230.604 18.452 231.084 18.724C231.564 18.996 231.932 19.372 232.188 19.852C232.452 20.324 232.584 20.86 232.584 21.46ZM231.456 21.232C231.456 20.816 231.364 20.46 231.18 20.164C230.996 19.86 230.744 19.632 230.424 19.48C230.112 19.32 229.764 19.24 229.38 19.24C228.828 19.24 228.356 19.416 227.964 19.768C227.58 20.12 227.36 20.608 227.304 21.232H231.456ZM236.817 20.812C236.817 19.996 237.001 19.264 237.369 18.616C237.737 17.96 238.237 17.448 238.869 17.08C239.509 16.712 240.217 16.528 240.993 16.528C241.905 16.528 242.701 16.748 243.381 17.188C244.061 17.628 244.557 18.252 244.869 19.06H243.561C243.329 18.556 242.993 18.168 242.553 17.896C242.121 17.624 241.601 17.488 240.993 17.488C240.409 17.488 239.885 17.624 239.421 17.896C238.957 18.168 238.593 18.556 238.329 19.06C238.065 19.556 237.933 20.14 237.933 20.812C237.933 21.476 238.065 22.06 238.329 22.564C238.593 23.06 238.957 23.444 239.421 23.716C239.885 23.988 240.409 24.124 240.993 24.124C241.601 24.124 242.121 23.992 242.553 23.728C242.993 23.456 243.329 23.068 243.561 22.564H244.869C244.557 23.364 244.061 23.984 243.381 24.424C242.701 24.856 241.905 25.072 240.993 25.072C240.217 25.072 239.509 24.892 238.869 24.532C238.237 24.164 237.737 23.656 237.369 23.008C237.001 22.36 236.817 21.628 236.817 20.812ZM246.086 21.688C246.086 21.016 246.222 20.428 246.494 19.924C246.766 19.412 247.138 19.016 247.61 18.736C248.09 18.456 248.622 18.316 249.206 18.316C249.782 18.316 250.282 18.44 250.706 18.688C251.13 18.936 251.446 19.248 251.654 19.624V18.424H252.758V25H251.654V23.776C251.438 24.16 251.114 24.48 250.682 24.736C250.258 24.984 249.762 25.108 249.194 25.108C248.61 25.108 248.082 24.964 247.61 24.676C247.138 24.388 246.766 23.984 246.494 23.464C246.222 22.944 246.086 22.352 246.086 21.688ZM251.654 21.7C251.654 21.204 251.554 20.772 251.354 20.404C251.154 20.036 250.882 19.756 250.538 19.564C250.202 19.364 249.83 19.264 249.422 19.264C249.014 19.264 248.642 19.36 248.306 19.552C247.97 19.744 247.702 20.024 247.502 20.392C247.302 20.76 247.202 21.192 247.202 21.688C247.202 22.192 247.302 22.632 247.502 23.008C247.702 23.376 247.97 23.66 248.306 23.86C248.642 24.052 249.014 24.148 249.422 24.148C249.83 24.148 250.202 24.052 250.538 23.86C250.882 23.66 251.154 23.376 251.354 23.008C251.554 22.632 251.654 22.196 251.654 21.7ZM255.696 19.492C255.888 19.116 256.16 18.824 256.512 18.616C256.872 18.408 257.308 18.304 257.82 18.304V19.432H257.532C256.308 19.432 255.696 20.096 255.696 21.424V25H254.604V18.424H255.696V19.492ZM258.672 21.688C258.672 21.016 258.808 20.428 259.08 19.924C259.352 19.412 259.724 19.016 260.196 18.736C260.676 18.456 261.212 18.316 261.804 18.316C262.316 18.316 262.792 18.436 263.232 18.676C263.672 18.908 264.008 19.216 264.24 19.6V16.12H265.344V25H264.24V23.764C264.024 24.156 263.704 24.48 263.28 24.736C262.856 24.984 262.36 25.108 261.792 25.108C261.208 25.108 260.676 24.964 260.196 24.676C259.724 24.388 259.352 23.984 259.08 23.464C258.808 22.944 258.672 22.352 258.672 21.688ZM264.24 21.7C264.24 21.204 264.14 20.772 263.94 20.404C263.74 20.036 263.468 19.756 263.124 19.564C262.788 19.364 262.416 19.264 262.008 19.264C261.6 19.264 261.228 19.36 260.892 19.552C260.556 19.744 260.288 20.024 260.088 20.392C259.888 20.76 259.788 21.192 259.788 21.688C259.788 22.192 259.888 22.632 260.088 23.008C260.288 23.376 260.556 23.66 260.892 23.86C261.228 24.052 261.6 24.148 262.008 24.148C262.416 24.148 262.788 24.052 263.124 23.86C263.468 23.66 263.74 23.376 263.94 23.008C264.14 22.632 264.24 22.196 264.24 21.7ZM269.518 25.108C269.014 25.108 268.562 25.024 268.162 24.856C267.762 24.68 267.446 24.44 267.214 24.136C266.982 23.824 266.854 23.468 266.83 23.068H267.958C267.99 23.396 268.142 23.664 268.414 23.872C268.694 24.08 269.058 24.184 269.506 24.184C269.922 24.184 270.25 24.092 270.49 23.908C270.73 23.724 270.85 23.492 270.85 23.212C270.85 22.924 270.722 22.712 270.466 22.576C270.21 22.432 269.814 22.292 269.278 22.156C268.79 22.028 268.39 21.9 268.078 21.772C267.774 21.636 267.51 21.44 267.286 21.184C267.07 20.92 266.962 20.576 266.962 20.152C266.962 19.816 267.062 19.508 267.262 19.228C267.462 18.948 267.746 18.728 268.114 18.568C268.482 18.4 268.902 18.316 269.374 18.316C270.102 18.316 270.69 18.5 271.138 18.868C271.586 19.236 271.826 19.74 271.858 20.38H270.766C270.742 20.036 270.602 19.76 270.346 19.552C270.098 19.344 269.762 19.24 269.338 19.24C268.946 19.24 268.634 19.324 268.402 19.492C268.17 19.66 268.054 19.88 268.054 20.152C268.054 20.368 268.122 20.548 268.258 20.692C268.402 20.828 268.578 20.94 268.786 21.028C269.002 21.108 269.298 21.2 269.674 21.304C270.146 21.432 270.53 21.56 270.826 21.688C271.122 21.808 271.374 21.992 271.582 22.24C271.798 22.488 271.91 22.812 271.918 23.212C271.918 23.572 271.818 23.896 271.618 24.184C271.418 24.472 271.134 24.7 270.766 24.868C270.406 25.028 269.99 25.108 269.518 25.108Z" fill="white"/>
<path d="M83.0833 16.4167V28.3334H65.6667V26.5H81.25V16.4167H83.0833ZM79.4167 24.6667H62.9167V13.6667H79.4167V24.6667ZM73.9167 19.1667C73.9167 17.645 72.6883 16.4167 71.1667 16.4167C69.645 16.4167 68.4167 17.645 68.4167 19.1667C68.4167 20.6884 69.645 21.9167 71.1667 21.9167C72.6883 21.9167 73.9167 20.6884 73.9167 19.1667Z" fill="white"/>
</svg>
