<svg width="66" height="24" viewBox="0 0 66 24" fill="none" xmlns="http://www.w3.org/2000/svg">
<path d="M64.5303 12.5303C64.8232 12.2374 64.8232 11.7626 64.5303 11.4697L59.7574 6.6967C59.4645 6.40381 58.9896 6.40381 58.6967 6.6967C58.4038 6.98959 58.4038 7.46447 58.6967 7.75736L62.9393 12L58.6967 16.2426C58.4038 16.5355 58.4038 17.0104 58.6967 17.3033C58.9896 17.5962 59.4645 17.5962 59.7574 17.3033L64.5303 12.5303ZM0 12.75H2V11.25H0V12.75ZM6 12.75H10V11.25H6V12.75ZM14 12.75H18V11.25H14V12.75ZM22 12.75H26V11.25H22V12.75ZM30 12.75H34V11.25H30V12.75ZM38 12.75H42V11.25H38V12.75ZM46 12.75H50V11.25H46V12.75ZM54 12.75H58V11.25H54V12.75ZM62 12.75H64V11.25H62V12.75ZM65.0607 13.0607C65.6464 12.4749 65.6464 11.5251 65.0607 10.9393L55.5147 1.3934C54.9289 0.807611 53.9792 0.807611 53.3934 1.3934C52.8076 1.97919 52.8076 2.92893 53.3934 3.51472L61.8787 12L53.3934 20.4853C52.8076 21.0711 52.8076 22.0208 53.3934 22.6066C53.9792 23.1924 54.9289 23.1924 55.5147 22.6066L65.0607 13.0607ZM0 13.5H2V10.5H0V13.5ZM6 13.5H10V10.5H6V13.5ZM14 13.5H18V10.5H14V13.5ZM22 13.5H26V10.5H22V13.5ZM30 13.5H34V10.5H30V13.5ZM38 13.5H42V10.5H38V13.5ZM46 13.5H50V10.5H46V13.5ZM54 13.5H58V10.5H54V13.5ZM62 13.5H64V10.5H62V13.5Z" fill="#299752"/>
</svg>
