<svg width="27" height="26" viewBox="0 0 27 26" fill="none" xmlns="http://www.w3.org/2000/svg">
<path d="M11.25 23.3125C11.25 23.6833 11.14 24.0459 10.934 24.3542C10.728 24.6625 10.4351 24.9029 10.0925 25.0448C9.74992 25.1867 9.37292 25.2238 9.00921 25.1515C8.64549 25.0791 8.3114 24.9005 8.04918 24.6383C7.78695 24.3761 7.60838 24.042 7.53603 23.6783C7.46368 23.3146 7.50081 22.9376 7.64273 22.595C7.78464 22.2524 8.02496 21.9595 8.33331 21.7535C8.64165 21.5475 9.00416 21.4375 9.375 21.4375C9.87228 21.4375 10.3492 21.635 10.7008 21.9867C11.0525 22.3383 11.25 22.8152 11.25 23.3125ZM21.5625 21.4375C21.1917 21.4375 20.8291 21.5475 20.5208 21.7535C20.2125 21.9595 19.9721 22.2524 19.8302 22.595C19.6883 22.9376 19.6512 23.3146 19.7235 23.6783C19.7959 24.042 19.9745 24.3761 20.2367 24.6383C20.4989 24.9005 20.833 25.0791 21.1967 25.1515C21.5604 25.2238 21.9374 25.1867 22.28 25.0448C22.6226 24.9029 22.9155 24.6625 23.1215 24.3542C23.3275 24.0459 23.4375 23.6833 23.4375 23.3125C23.4375 22.8152 23.24 22.3383 22.8883 21.9867C22.5367 21.635 22.0598 21.4375 21.5625 21.4375ZM26.8828 6.69531L23.7891 17.5234C23.6192 18.1104 23.2635 18.6265 22.7754 18.9941C22.2873 19.3618 21.6931 19.5612 21.082 19.5625H9.85547C9.24439 19.5612 8.65021 19.3618 8.16211 18.9941C7.67401 18.6265 7.31832 18.1104 7.14844 17.5234L4.05469 6.70703V6.68359L2.90625 2.6875H0.9375C0.68886 2.6875 0.450403 2.58873 0.274587 2.41291C0.0987721 2.2371 0 1.99864 0 1.75C0 1.50136 0.0987721 1.2629 0.274587 1.08709C0.450403 0.911272 0.68886 0.8125 0.9375 0.8125H2.90625C3.31348 0.813976 3.7093 0.94717 4.03457 1.19218C4.35985 1.4372 4.59712 1.78088 4.71094 2.17187L5.66016 5.5H25.9805C26.1257 5.49985 26.2689 5.53343 26.399 5.5981C26.529 5.66277 26.6422 5.75676 26.7297 5.87265C26.8172 5.98855 26.8766 6.12319 26.9031 6.26595C26.9297 6.40871 26.9227 6.5557 26.8828 6.69531ZM24.7383 7.375H6.19922L8.95313 17.0078C9.00918 17.2038 9.1276 17.3762 9.29043 17.4988C9.45325 17.6215 9.65162 17.6877 9.85547 17.6875H21.082C21.2859 17.6877 21.4842 17.6215 21.6471 17.4988C21.8099 17.3762 21.9283 17.2038 21.9844 17.0078L24.7383 7.375Z" fill="black"/>
</svg>
