<svg width="20" height="20" viewBox="0 0 20 20" fill="none" xmlns="http://www.w3.org/2000/svg">
<path d="M10.0013 1.6665C5.41797 1.6665 1.66797 5.4165 1.66797 9.99984C1.66797 14.5832 5.41797 18.3332 10.0013 18.3332C14.5846 18.3332 18.3346 14.5832 18.3346 9.99984C18.3346 5.4165 14.5846 1.6665 10.0013 1.6665ZM10.0013 16.6665C6.3263 16.6665 3.33464 13.6748 3.33464 9.99984C3.33464 6.32484 6.3263 3.33317 10.0013 3.33317C13.6763 3.33317 16.668 6.32484 16.668 9.99984C16.668 13.6748 13.6763 16.6665 10.0013 16.6665ZM10.418 5.83317H9.16797V10.8332L13.5013 13.4998L14.168 12.4165L10.418 10.1665V5.83317Z" fill="#252525"/>
</svg>
