<svg width="24" height="24" viewBox="0 0 24 24" fill="none" xmlns="http://www.w3.org/2000/svg">
<path d="M19 6C18.1667 6 17.4583 5.70833 16.875 5.125C16.2917 4.54167 16 3.83333 16 3C16 2.16667 16.2917 1.45833 16.875 0.875C17.4583 0.291667 18.1667 0 19 0C19.8333 0 20.5417 0.291667 21.125 0.875C21.7083 1.45833 22 2.16667 22 3C22 3.83333 21.7083 4.54167 21.125 5.125C20.5417 5.70833 19.8333 6 19 6ZM2 22V4C2 3.45 2.196 2.979 2.588 2.587C2.97933 2.19567 3.45 2 4 2H14.1C14.0333 2.33333 14 2.66667 14 3C14 3.33333 14.0333 3.66667 14.1 4C14.3333 5.15 14.9083 6.104 15.825 6.862C16.7417 7.62067 17.8 8 19 8C19.5333 8 20.0583 7.91667 20.575 7.75C21.0917 7.58333 21.5667 7.33333 22 7V16C22 16.55 21.8043 17.021 21.413 17.413C21.021 17.8043 20.55 18 20 18H6L2 22Z" fill="#252525"/>
</svg>
