<svg width="12" height="7" viewBox="0 0 12 7" fill="none" xmlns="http://www.w3.org/2000/svg">
<path d="M5.99994 6.95022C5.86661 6.95022 5.74161 6.92922 5.62494 6.88722C5.50827 6.84589 5.39994 6.77522 5.29994 6.67522L0.67494 2.05022C0.491607 1.86689 0.404274 1.63755 0.41294 1.36222C0.42094 1.08755 0.516607 0.858554 0.69994 0.675221C0.883273 0.491887 1.11661 0.40022 1.39994 0.40022C1.68327 0.40022 1.91661 0.491887 2.09994 0.675221L5.99994 4.57522L9.92494 0.65022C10.1083 0.466887 10.3376 0.37922 10.6129 0.38722C10.8876 0.395887 11.1166 0.491887 11.2999 0.675221C11.4833 0.858554 11.5749 1.09189 11.5749 1.37522C11.5749 1.65855 11.4833 1.89189 11.2999 2.07522L6.69994 6.67522C6.59994 6.77522 6.49161 6.84589 6.37494 6.88722C6.25827 6.92922 6.13327 6.95022 5.99994 6.95022Z" fill="#252525"/>
</svg>
