<svg width="12" height="8" viewBox="0 0 12 8" fill="none" xmlns="http://www.w3.org/2000/svg">
<path d="M9.87999 1.29007L5.99999 5.17007L2.11999 1.29007C2.02741 1.19749 1.9175 1.12405 1.79653 1.07394C1.67557 1.02384 1.54592 0.998047 1.41499 0.998047C1.28406 0.998047 1.15441 1.02384 1.03345 1.07394C0.912482 1.12405 0.802571 1.19749 0.70999 1.29007C0.617408 1.38265 0.543968 1.49256 0.493863 1.61352C0.443758 1.73449 0.417969 1.86414 0.417969 1.99507C0.417969 2.126 0.443758 2.25565 0.493863 2.37661C0.543968 2.49757 0.617408 2.60749 0.70999 2.70007L5.29999 7.29007C5.68999 7.68007 6.31999 7.68007 6.70999 7.29007L11.3 2.70007C11.3927 2.60755 11.4662 2.49767 11.5164 2.37669C11.5666 2.25572 11.5924 2.12604 11.5924 1.99507C11.5924 1.8641 11.5666 1.73442 11.5164 1.61344C11.4662 1.49247 11.3927 1.38258 11.3 1.29007C10.91 0.910068 10.27 0.900068 9.87999 1.29007Z" fill="#252525"/>
</svg>
