<svg width="14" height="14" viewBox="0 0 14 14" fill="none" xmlns="http://www.w3.org/2000/svg">
<path d="M0.716365 13.1999C0.61737 13.1998 0.519493 13.1787 0.42896 13.1382C0.338426 13.0977 0.257216 13.0385 0.190494 12.9644C0.122565 12.891 0.0707303 12.8039 0.0383897 12.7088C0.00604919 12.6136 -0.00606694 12.5127 0.00283564 12.4125L0.17765 10.4662L8.25337 2.29254L10.7771 4.84709L2.70354 13.0201L0.781296 13.1971C0.75971 13.1991 0.738042 13.2 0.716365 13.1999V13.1999ZM11.2809 4.33632L8.75784 1.78178L10.2712 0.24948C10.3375 0.18231 10.4162 0.129023 10.5028 0.0926671C10.5894 0.0563108 10.6823 0.0375977 10.7761 0.0375977C10.8698 0.0375977 10.9627 0.0563108 11.0493 0.0926671C11.1359 0.129023 11.2146 0.18231 11.2809 0.24948L12.7943 1.78178C12.8606 1.84887 12.9132 1.92855 12.9492 2.01625C12.9851 2.10395 13.0035 2.19796 13.0035 2.2929C13.0035 2.38784 12.9851 2.48185 12.9492 2.56955C12.9132 2.65726 12.8606 2.73693 12.7943 2.80403L11.2816 4.3356L11.2809 4.33632V4.33632Z" fill="#252525"/>
</svg>
