<svg width="13" height="7" viewBox="0 0 13 7" fill="none" xmlns="http://www.w3.org/2000/svg">
<path d="M11.0078 0.310447L6.49394 4.43527L1.98007 0.310447C1.87237 0.212023 1.7445 0.13395 1.60378 0.0806832C1.46305 0.0274167 1.31222 1.03707e-09 1.1599 0C1.00758 -1.03706e-09 0.856752 0.0274167 0.716026 0.0806832C0.575301 0.13395 0.447434 0.212023 0.339727 0.310447C0.232021 0.408871 0.146583 0.525717 0.0882924 0.654314C0.030002 0.782911 -1.13487e-09 0.92074 0 1.05993C1.13488e-09 1.19912 0.030002 1.33695 0.0882924 1.46555C0.146583 1.59415 0.232021 1.71099 0.339727 1.80942L5.67958 6.68904C6.13329 7.10365 6.86622 7.10365 7.31993 6.68904L12.6598 1.80942C12.7676 1.71107 12.8532 1.59424 12.9116 1.46564C12.97 1.33703 13 1.19916 13 1.05993C13 0.9207 12.97 0.782834 12.9116 0.654228C12.8532 0.525621 12.7676 0.408798 12.6598 0.310447C12.2061 -0.0935306 11.4615 -0.104162 11.0078 0.310447Z" fill="#252525"/>
</svg>
