<svg width="24" height="24" viewBox="0 0 24 24" fill="none" xmlns="http://www.w3.org/2000/svg">
<path fill-rule="evenodd" clip-rule="evenodd" d="M11.298 2.19493C11.6926 2.04729 12.1238 2.02804 12.53 2.13993L12.702 2.19493L19.702 4.81993C20.0569 4.95303 20.3667 5.18424 20.5953 5.48664C20.8239 5.78903 20.9618 6.15016 20.993 6.52793L21 6.69293V12.0559C21 13.6764 20.5624 15.2667 19.7336 16.6591C18.9048 18.0515 17.7154 19.1944 16.291 19.9669L16.025 20.1059L12.671 21.7829C12.4863 21.8751 12.2846 21.9282 12.0785 21.9389C11.8723 21.9496 11.6662 21.9176 11.473 21.8449L11.329 21.7829L7.975 20.1059C6.52561 19.3812 5.29878 18.2786 4.424 16.9145C3.54923 15.5505 3.05898 13.9755 3.005 12.3559L3 12.0559V6.69293C3.00001 6.31406 3.10763 5.94299 3.31033 5.62291C3.51304 5.30282 3.8025 5.0469 4.145 4.88493L4.298 4.81993L11.298 2.19493ZM15.433 8.62893L10.835 13.2269L9.067 11.4589C8.87936 11.2714 8.62492 11.1661 8.35965 11.1662C8.09438 11.1663 7.84001 11.2718 7.6525 11.4594C7.46499 11.6471 7.3597 11.9015 7.3598 12.1668C7.35989 12.4321 7.46536 12.6864 7.653 12.8739L10.057 15.2779C10.1592 15.3801 10.2804 15.4612 10.4139 15.5165C10.5474 15.5718 10.6905 15.6003 10.835 15.6003C10.9795 15.6003 11.1226 15.5718 11.2561 15.5165C11.3896 15.4612 11.5108 15.3801 11.613 15.2779L16.847 10.0429C16.9425 9.95069 17.0187 9.84034 17.0711 9.71834C17.1235 9.59634 17.1511 9.46512 17.1523 9.33234C17.1534 9.19956 17.1281 9.06788 17.0778 8.94498C17.0275 8.82208 16.9533 8.71043 16.8594 8.61654C16.7655 8.52265 16.6539 8.44839 16.531 8.39811C16.4081 8.34783 16.2764 8.32253 16.1436 8.32368C16.0108 8.32484 15.8796 8.35242 15.7576 8.40483C15.6356 8.45724 15.5252 8.53342 15.433 8.62893Z" fill="black"/>
</svg>
