<svg width="10" height="7" viewBox="0 0 10 7" fill="none" xmlns="http://www.w3.org/2000/svg">
<path d="M9.88232 6.40189C9.80539 6.48858 9.70211 6.53711 9.59457 6.53711C9.48703 6.53711 9.38375 6.48858 9.30682 6.40189L5 1.55862L0.694044 6.40189C0.617111 6.48858 0.513835 6.53711 0.406292 6.53711C0.298749 6.53711 0.195472 6.48858 0.118538 6.40189C0.0810242 6.35975 0.0512075 6.30937 0.0308475 6.25372C0.0104885 6.19807 -1.74334e-08 6.13828 -2.00737e-08 6.07788C-2.2714e-08 6.01747 0.0104885 5.95768 0.0308475 5.90203C0.0512075 5.84638 0.0810241 5.796 0.118538 5.75387L4.69932 0.603488C4.77977 0.51303 4.88766 0.462403 5 0.462403C5.11234 0.462403 5.22023 0.51303 5.30068 0.603488L9.88146 5.75387C9.91898 5.796 9.94879 5.84638 9.96915 5.90203C9.98951 5.95768 10 6.01747 10 6.07788C10 6.13828 9.98951 6.19807 9.96915 6.25372C9.94879 6.30937 9.91898 6.35975 9.88146 6.40189L9.88232 6.40189Z" fill="#252525"/>
</svg>
