<svg width="20" height="20" viewBox="0 0 20 20" fill="none" xmlns="http://www.w3.org/2000/svg">
<path d="M10.0013 1.66675C5.41797 1.66675 1.66797 5.41675 1.66797 10.0001C1.66797 14.5834 5.41797 18.3334 10.0013 18.3334C14.5846 18.3334 18.3346 14.5834 18.3346 10.0001C18.3346 5.41675 14.5846 1.66675 10.0013 1.66675ZM10.0013 16.6667C6.3263 16.6667 3.33464 13.6751 3.33464 10.0001C3.33464 6.32508 6.3263 3.33341 10.0013 3.33341C13.6763 3.33341 16.668 6.32508 16.668 10.0001C16.668 13.6751 13.6763 16.6667 10.0013 16.6667ZM10.418 5.83341H9.16797V10.8334L13.5013 13.5001L14.168 12.4167L10.418 10.1667V5.83341Z" fill="#252525"/>
</svg>
