<svg width="24" height="24" viewBox="0 0 24 24" fill="none" xmlns="http://www.w3.org/2000/svg">
<path d="M19 11.95C19 9.99995 18.3207 8.34562 16.962 6.98695C15.604 5.62895 13.95 4.94995 12 4.94995V2.94995C13.25 2.94995 14.421 3.18728 15.513 3.66195C16.6043 4.13728 17.5543 4.77928 18.363 5.58795C19.171 6.39595 19.8127 7.34595 20.288 8.43795C20.7627 9.52928 21 10.7 21 11.95H19ZM15 11.95C15 11.1166 14.7083 10.4083 14.125 9.82495C13.5417 9.24162 12.8333 8.94995 12 8.94995V6.94995C13.3833 6.94995 14.5627 7.43728 15.538 8.41195C16.5127 9.38728 17 10.5666 17 11.95H15ZM19.95 21C17.8 21 15.7043 20.525 13.663 19.575C11.621 18.625 9.81267 17.3583 8.238 15.775C6.66267 14.1916 5.396 12.379 4.438 10.337C3.47933 8.29562 3 6.19995 3 4.04995V3.52495C3 3.34162 3.01667 3.16662 3.05 2.99995H8.9L9.825 8.02495L6.975 10.9C7.675 12.1 8.55433 13.225 9.613 14.275C10.671 15.325 11.8333 16.2333 13.1 17L16 14.1L21 15.1V20.95C20.8333 20.9666 20.6583 20.9793 20.475 20.988C20.2917 20.996 20.1167 21 19.95 21Z" fill="#252525"/>
</svg>
