<svg width="24" height="24" viewBox="0 0 24 24" fill="none" xmlns="http://www.w3.org/2000/svg">
<path d="M18.175 18H15C14.7167 18 14.4793 17.904 14.288 17.712C14.096 17.5207 14 17.2833 14 17C14 16.7167 14.096 16.4793 14.288 16.288C14.4793 16.096 14.7167 16 15 16H18.175L17.3 15.125C17.1167 14.925 17.021 14.6873 17.013 14.412C17.0043 14.1373 17.1 13.9 17.3 13.7C17.5 13.5 17.7333 13.4 18 13.4C18.2667 13.4 18.5 13.5 18.7 13.7L21.3 16.3C21.5 16.5 21.6 16.7333 21.6 17C21.6 17.2667 21.5 17.5 21.3 17.7L18.7 20.3C18.5 20.5 18.2667 20.6 18 20.6C17.7333 20.6 17.5 20.5 17.3 20.3C17.1 20.1 17.0043 19.8623 17.013 19.587C17.021 19.3123 17.1167 19.075 17.3 18.875L18.175 18ZM6 18L3.85 20.15C3.68333 20.3167 3.5 20.3583 3.3 20.275C3.1 20.1917 3 20.0333 3 19.8V6C3 5.45 3.19567 4.97933 3.587 4.588C3.979 4.196 4.45 4 5 4H17C17.55 4 18.021 4.196 18.413 4.588C18.8043 4.97933 19 5.45 19 6V11.075C18.8333 11.0417 18.6667 11.0207 18.5 11.012C18.3333 11.004 18.1667 11 18 11C17.8333 11 17.6667 11.004 17.5 11.012C17.3333 11.0207 17.1667 11.0417 17 11.075V6H5V16H12.075C12.0417 16.1667 12.0207 16.3333 12.012 16.5C12.004 16.6667 12 16.8333 12 17C12 17.1667 12.004 17.3333 12.012 17.5C12.0207 17.6667 12.0417 17.8333 12.075 18H6ZM8 10H14C14.2833 10 14.521 9.904 14.713 9.712C14.9043 9.52067 15 9.28333 15 9C15 8.71667 14.9043 8.479 14.713 8.287C14.521 8.09567 14.2833 8 14 8H8C7.71667 8 7.479 8.09567 7.287 8.287C7.09567 8.479 7 8.71667 7 9C7 9.28333 7.09567 9.52067 7.287 9.712C7.479 9.904 7.71667 10 8 10ZM8 14H11C11.2833 14 11.521 13.904 11.713 13.712C11.9043 13.5207 12 13.2833 12 13C12 12.7167 11.9043 12.479 11.713 12.287C11.521 12.0957 11.2833 12 11 12H8C7.71667 12 7.479 12.0957 7.287 12.287C7.09567 12.479 7 12.7167 7 13C7 13.2833 7.09567 13.5207 7.287 13.712C7.479 13.904 7.71667 14 8 14Z" fill="#252525"/>
</svg>
