<svg width="45" height="38" viewBox="0 0 45 38" fill="none" xmlns="http://www.w3.org/2000/svg">
<rect width="44.1042" height="37.3333" rx="6" fill="#FCF3E6"/>
<path d="M10 13.7917H20.5625L21.375 15.4167H10.8125L10 13.7917ZM11.0833 17.0417H21.6458L22.4583 18.6667H11.8958L11.0833 17.0417ZM28.6875 25.7083C29.5867 25.7083 30.3125 24.9825 30.3125 24.0833C30.3125 23.1842 29.5867 22.4583 28.6875 22.4583C27.7883 22.4583 27.0625 23.1842 27.0625 24.0833C27.0625 24.9825 27.7883 25.7083 28.6875 25.7083ZM30.3125 15.9583H27.6042V18.6667H32.4358L30.3125 15.9583ZM17.8542 25.7083C18.7533 25.7083 19.4792 24.9825 19.4792 24.0833C19.4792 23.1842 18.7533 22.4583 17.8542 22.4583C16.955 22.4583 16.2292 23.1842 16.2292 24.0833C16.2292 24.9825 16.955 25.7083 17.8542 25.7083ZM30.8542 14.3333L34.1042 18.6667V24.0833H31.9375C31.9375 25.8817 30.4858 27.3333 28.6875 27.3333C26.8892 27.3333 25.4375 25.8817 25.4375 24.0833H21.1042C21.1042 25.8817 19.6417 27.3333 17.8542 27.3333C16.0558 27.3333 14.6042 25.8817 14.6042 24.0833H12.4375V20.2917H14.6042V21.9167H15.4275C16.0233 21.2558 16.89 20.8333 17.8542 20.8333C18.8183 20.8333 19.685 21.2558 20.2808 21.9167H25.4375V12.1667H12.4375C12.4375 10.9642 13.4017 10 14.6042 10H27.6042V14.3333H30.8542Z" fill="#E38305"/>
</svg>
